<svg xmlns="http://www.w3.org/2000/svg" width="900" height="420" viewBox="0 0 900 420" role="img" aria-labelledby="title desc">
<title id="title">Project Burndown</title>
<desc id="desc">Burndown chart showing remaining story points and ideal remaining story points over time.</desc>
<rect width="100%" height="100%" fill="#090054"/>
<text x="70" y="32" font-family="Jost, Arial, Helvetica, sans-serif" font-size="22" font-weight="700" fill="#EEDEFF">Project Burndown</text>
<line x1="65" y1="355.0" x2="870" y2="355.0" stroke="#3A3A3A"/><text x="58" y="359.0" font-family="Overpass, Arial, Helvetica, sans-serif" font-size="12" text-anchor="end" fill="#EEDEFF">0</text>
<line x1="65" y1="343.9" x2="870" y2="343.9" stroke="#3A3A3A"/><text x="58" y="347.9" font-family="Overpass, Arial, Helvetica, sans-serif" font-size="12" text-anchor="end" fill="#EEDEFF">25</text>
<line x1="65" y1="332.8" x2="870" y2="332.8" stroke="#3A3A3A"/><text x="58" y="336.8" font-family="Overpass, Arial, Helvetica, sans-serif" font-size="12" text-anchor="end" fill="#EEDEFF">50</text>
<line x1="65" y1="321.7" x2="870" y2="321.7" stroke="#3A3A3A"/><text x="58" y="325.7" font-family="Overpass, Arial, Helvetica, sans-serif" font-size="12" text-anchor="end" fill="#EEDEFF">75</text>
<line x1="65" y1="310.6" x2="870" y2="310.6" stroke="#3A3A3A"/><text x="58" y="314.6" font-family="Overpass, Arial, Helvetica, sans-serif" font-size="12" text-anchor="end" fill="#EEDEFF">100</text>
<line x1="65" y1="299.4" x2="870" y2="299.4" stroke="#3A3A3A"/><text x="58" y="303.4" font-family="Overpass, Arial, Helvetica, sans-serif" font-size="12" text-anchor="end" fill="#EEDEFF">125</text>
<line x1="65" y1="288.3" x2="870" y2="288.3" stroke="#3A3A3A"/><text x="58" y="292.3" font-family="Overpass, Arial, Helvetica, sans-serif" font-size="12" text-anchor="end" fill="#EEDEFF">150</text>
<line x1="65" y1="277.2" x2="870" y2="277.2" stroke="#3A3A3A"/><text x="58" y="281.2" font-family="Overpass, Arial, Helvetica, sans-serif" font-size="12" text-anchor="end" fill="#EEDEFF">175</text>
<line x1="65" y1="266.1" x2="870" y2="266.1" stroke="#3A3A3A"/><text x="58" y="270.1" font-family="Overpass, Arial, Helvetica, sans-serif" font-size="12" text-anchor="end" fill="#EEDEFF">200</text>
<line x1="65" y1="255.0" x2="870" y2="255.0" stroke="#3A3A3A"/><text x="58" y="259.0" font-family="Overpass, Arial, Helvetica, sans-serif" font-size="12" text-anchor="end" fill="#EEDEFF">225</text>
<line x1="65" y1="243.9" x2="870" y2="243.9" stroke="#3A3A3A"/><text x="58" y="247.9" font-family="Overpass, Arial, Helvetica, sans-serif" font-size="12" text-anchor="end" fill="#EEDEFF">250</text>
<line x1="65" y1="232.8" x2="870" y2="232.8" stroke="#3A3A3A"/><text x="58" y="236.8" font-family="Overpass, Arial, Helvetica, sans-serif" font-size="12" text-anchor="end" fill="#EEDEFF">275</text>
<line x1="65" y1="221.7" x2="870" y2="221.7" stroke="#3A3A3A"/><text x="58" y="225.7" font-family="Overpass, Arial, Helvetica, sans-serif" font-size="12" text-anchor="end" fill="#EEDEFF">300</text>
<line x1="65" y1="210.6" x2="870" y2="210.6" stroke="#3A3A3A"/><text x="58" y="214.6" font-family="Overpass, Arial, Helvetica, sans-serif" font-size="12" text-anchor="end" fill="#EEDEFF">325</text>
<line x1="65" y1="199.4" x2="870" y2="199.4" stroke="#3A3A3A"/><text x="58" y="203.4" font-family="Overpass, Arial, Helvetica, sans-serif" font-size="12" text-anchor="end" fill="#EEDEFF">350</text>
<line x1="65" y1="188.3" x2="870" y2="188.3" stroke="#3A3A3A"/><text x="58" y="192.3" font-family="Overpass, Arial, Helvetica, sans-serif" font-size="12" text-anchor="end" fill="#EEDEFF">375</text>
<line x1="65" y1="177.2" x2="870" y2="177.2" stroke="#3A3A3A"/><text x="58" y="181.2" font-family="Overpass, Arial, Helvetica, sans-serif" font-size="12" text-anchor="end" fill="#EEDEFF">400</text>
<line x1="65" y1="166.1" x2="870" y2="166.1" stroke="#3A3A3A"/><text x="58" y="170.1" font-family="Overpass, Arial, Helvetica, sans-serif" font-size="12" text-anchor="end" fill="#EEDEFF">425</text>
<line x1="65" y1="155.0" x2="870" y2="155.0" stroke="#3A3A3A"/><text x="58" y="159.0" font-family="Overpass, Arial, Helvetica, sans-serif" font-size="12" text-anchor="end" fill="#EEDEFF">450</text>
<line x1="65" y1="143.9" x2="870" y2="143.9" stroke="#3A3A3A"/><text x="58" y="147.9" font-family="Overpass, Arial, Helvetica, sans-serif" font-size="12" text-anchor="end" fill="#EEDEFF">475</text>
<line x1="65" y1="132.8" x2="870" y2="132.8" stroke="#3A3A3A"/><text x="58" y="136.8" font-family="Overpass, Arial, Helvetica, sans-serif" font-size="12" text-anchor="end" fill="#EEDEFF">500</text>
<line x1="65" y1="121.7" x2="870" y2="121.7" stroke="#3A3A3A"/><text x="58" y="125.7" font-family="Overpass, Arial, Helvetica, sans-serif" font-size="12" text-anchor="end" fill="#EEDEFF">525</text>
<line x1="65" y1="110.6" x2="870" y2="110.6" stroke="#3A3A3A"/><text x="58" y="114.6" font-family="Overpass, Arial, Helvetica, sans-serif" font-size="12" text-anchor="end" fill="#EEDEFF">550</text>
<line x1="65" y1="99.4" x2="870" y2="99.4" stroke="#3A3A3A"/><text x="58" y="103.4" font-family="Overpass, Arial, Helvetica, sans-serif" font-size="12" text-anchor="end" fill="#EEDEFF">575</text>
<line x1="65" y1="88.3" x2="870" y2="88.3" stroke="#3A3A3A"/><text x="58" y="92.3" font-family="Overpass, Arial, Helvetica, sans-serif" font-size="12" text-anchor="end" fill="#EEDEFF">600</text>
<line x1="65" y1="77.2" x2="870" y2="77.2" stroke="#3A3A3A"/><text x="58" y="81.2" font-family="Overpass, Arial, Helvetica, sans-serif" font-size="12" text-anchor="end" fill="#EEDEFF">625</text>
<line x1="65" y1="66.1" x2="870" y2="66.1" stroke="#3A3A3A"/><text x="58" y="70.1" font-family="Overpass, Arial, Helvetica, sans-serif" font-size="12" text-anchor="end" fill="#EEDEFF">650</text>
<line x1="65" y1="55.0" x2="870" y2="55.0" stroke="#3A3A3A"/><text x="58" y="59.0" font-family="Overpass, Arial, Helvetica, sans-serif" font-size="12" text-anchor="end" fill="#EEDEFF">675</text>
<line x1="70.0" y1="355" x2="70.0" y2="360" stroke="#EEDEFF"/><text x="70.0" y="382" font-family="Overpass, Arial, Helvetica, sans-serif" font-size="12" text-anchor="middle" fill="#EEDEFF">27 Apr</text>
<line x1="158.9" y1="355" x2="158.9" y2="360" stroke="#EEDEFF"/><text x="158.9" y="382" font-family="Overpass, Arial, Helvetica, sans-serif" font-size="12" text-anchor="middle" fill="#EEDEFF">11 May</text>
<line x1="247.8" y1="355" x2="247.8" y2="360" stroke="#EEDEFF"/><text x="247.8" y="382" font-family="Overpass, Arial, Helvetica, sans-serif" font-size="12" text-anchor="middle" fill="#EEDEFF">25 May</text>
<line x1="336.7" y1="355" x2="336.7" y2="360" stroke="#EEDEFF"/><text x="336.7" y="382" font-family="Overpass, Arial, Helvetica, sans-serif" font-size="12" text-anchor="middle" fill="#EEDEFF">8 Jun</text>
<line x1="425.6" y1="355" x2="425.6" y2="360" stroke="#EEDEFF"/><text x="425.6" y="382" font-family="Overpass, Arial, Helvetica, sans-serif" font-size="12" text-anchor="middle" fill="#EEDEFF">22 Jun</text>
<line x1="514.4" y1="355" x2="514.4" y2="360" stroke="#EEDEFF"/><text x="514.4" y="382" font-family="Overpass, Arial, Helvetica, sans-serif" font-size="12" text-anchor="middle" fill="#EEDEFF">6 Jul</text>
<line x1="603.3" y1="355" x2="603.3" y2="360" stroke="#EEDEFF"/><text x="603.3" y="382" font-family="Overpass, Arial, Helvetica, sans-serif" font-size="12" text-anchor="middle" fill="#EEDEFF">20 Jul</text>
<line x1="692.2" y1="355" x2="692.2" y2="360" stroke="#EEDEFF"/><text x="692.2" y="382" font-family="Overpass, Arial, Helvetica, sans-serif" font-size="12" text-anchor="middle" fill="#EEDEFF">3 Aug</text>
<line x1="781.1" y1="355" x2="781.1" y2="360" stroke="#EEDEFF"/><text x="781.1" y="382" font-family="Overpass, Arial, Helvetica, sans-serif" font-size="12" text-anchor="middle" fill="#EEDEFF">17 Aug</text>
<line x1="870.0" y1="355" x2="870.0" y2="360" stroke="#EEDEFF"/><text x="870.0" y="382" font-family="Overpass, Arial, Helvetica, sans-serif" font-size="12" text-anchor="middle" fill="#EEDEFF">31 Aug</text>
<line x1="70" y1="55" x2="70" y2="355" stroke="#EEDEFF"/>
<line x1="70" y1="355" x2="870" y2="355" stroke="#EEDEFF"/>
<text x="18" y="205.0" font-family="Overpass, Arial, Helvetica, sans-serif" font-size="13" text-anchor="middle" transform="rotate(-90 18 205.0)" fill="#EEDEFF">Story Points Remaining</text>
<text x="470.0" y="408" font-family="Overpass, Arial, Helvetica, sans-serif" font-size="13" text-anchor="middle" fill="#EEDEFF">Sprint Timeline</text>
<polyline points="70.0,59.4 76.3,61.8 82.7,64.1 89.0,66.5 95.4,68.8 101.7,71.2 108.1,73.5 114.4,75.9 120.8,78.2 127.1,80.6 133.5,82.9 139.8,85.2 146.2,87.6 152.5,89.9 158.9,92.3 165.2,94.6 171.6,97.0 177.9,99.3 184.3,101.7 190.6,104.0 197.0,106.4 203.3,108.7 209.7,111.0 216.0,113.4 222.4,115.7 228.7,118.1 235.1,120.4 241.4,122.8 247.8,125.1 254.1,127.5 260.5,129.8 266.8,132.2 273.2,134.5 279.5,136.9 285.9,139.2 292.2,141.5 298.6,143.9 304.9,146.2 311.3,148.6 317.6,150.9 324.0,153.3 330.3,155.6 336.7,158.0 343.0,160.3 349.4,162.7 355.7,165.0 362.1,167.3 368.4,169.7 374.8,172.0 381.1,174.4 387.5,176.7 393.8,179.1 400.2,181.4 406.5,183.8 412.9,186.1 419.2,188.5 425.6,190.8 431.9,193.1 438.3,195.5 444.6,197.8 451.0,200.2 457.3,202.5 463.7,204.9 470.0,207.2 476.3,209.6 482.7,211.9 489.0,214.3 495.4,216.6 501.7,219.0 508.1,221.3 514.4,223.6 520.8,226.0 527.1,228.3 533.5,230.7 539.8,233.0 546.2,235.4 552.5,237.7 558.9,240.1 565.2,242.4 571.6,244.8 577.9,247.1 584.3,249.4 590.6,251.8 597.0,254.1 603.3,256.5 609.7,258.8 616.0,261.2 622.4,263.5 628.7,265.9 635.1,268.2 641.4,270.6 647.8,272.9 654.1,275.2 660.5,277.6 666.8,279.9 673.2,282.3 679.5,284.6 685.9,287.0 692.2,289.3 698.6,291.7 704.9,294.0 711.3,296.4 717.6,298.7 724.0,301.0 730.3,303.4 736.7,305.7 743.0,308.1 749.4,310.4 755.7,312.8 762.1,315.1 768.4,317.5 774.8,319.8 781.1,322.2 787.5,324.5 793.8,326.9 800.2,329.2 806.5,331.5 812.9,333.9 819.2,336.2 825.6,338.6 831.9,340.9 838.3,343.3 844.6,345.6 851.0,348.0 857.3,350.3 863.7,352.7 870.0,355.0" fill="none" stroke="#B37DFF" stroke-width="3" stroke-dasharray="8 6"/>
<polyline points="70.0,59.4 76.3,60.8 82.7,60.8 89.0,65.7 95.4,67.9 101.7,67.9 108.1,70.6 114.4,70.6 120.8,71.0 127.1,71.0 133.5,72.3 139.8,78.6 146.2,85.7 152.5,98.1 158.9,102.1 165.2,107.4 171.6,109.7 177.9,109.7 184.3,110.1 190.6,112.3 197.0,114.6 203.3,123.9 209.7,131.0 216.0,135.9 222.4,146.6 228.7,146.6 235.1,146.6 241.4,146.6 247.8,146.6 254.1,147.4 260.5,147.4 266.8,147.4 273.2,148.8 279.5,148.8 285.9,148.8 292.2,148.8 298.6,148.8 304.9,150.1 311.3,150.1 317.6,150.1 324.0,150.1 330.3,150.1 336.7,150.1 343.0,150.1 349.4,150.1 355.7,150.1 362.1,150.1 368.4,150.1 374.8,150.1 381.1,150.1 387.5,159.4 393.8,172.8 400.2,180.8 406.5,181.7 412.9,181.7 419.2,181.7 425.6,182.6 431.9,187.9 438.3,188.8 444.6,190.6 451.0,191.4 457.3,191.4 463.7,192.8 470.0,196.3 476.3,201.2 482.7,207.4 489.0,210.6 495.4,211.4 501.7,211.4 508.1,211.4 514.4,215.9 520.8,216.8 527.1,218.6 533.5,218.6 539.8,218.6 546.2,218.6 552.5,218.6 558.9,221.2 565.2,222.1 571.6,223.0 577.9,223.9 584.3,223.9 590.6,223.9 597.0,226.1 603.3,231.9 609.7,233.7 616.0,235.4 622.4,237.7 628.7,239.4 635.1,241.2 641.4,247.4 647.8,254.1 654.1,255.9 660.5,268.8 666.8,276.8 673.2,287.4 679.5,287.4 685.9,287.4 692.2,287.4 698.6,287.4 704.9,287.4 711.3,287.4 717.6,288.8 724.0,291.0 730.3,293.2 736.7,295.4 743.0,299.0 749.4,299.0 755.7,299.0 762.1,301.2 768.4,304.8 774.8,318.1 781.1,320.3 787.5,320.3 793.8,323.9 800.2,324.8 806.5,324.8 812.9,324.8 819.2,324.8 825.6,327.0 831.9,327.0 838.3,327.0 844.6,327.0 851.0,327.9 857.3,332.3 863.7,335.9 870.0,335.9" fill="none" stroke="#D6B3FF" stroke-width="4"/>
<line x1="610" y1="75" x2="645" y2="75" stroke="#D6B3FF" stroke-width="4"/>
<text x="655" y="80" font-family="Overpass, Arial, Helvetica, sans-serif" font-size="13" fill="#EEDEFF">Remaining work</text>
<line x1="610" y1="97" x2="645" y2="97" stroke="#B37DFF" stroke-width="3" stroke-dasharray="8 6"/>
<text x="655" y="102" font-family="Overpass, Arial, Helvetica, sans-serif" font-size="13" fill="#EEDEFF">Ideal burndown</text>
</svg>
