<svg xmlns="http://www.w3.org/2000/svg" width="900" height="420" viewBox="0 0 900 420" role="img" aria-labelledby="title desc">
<title id="title">Project Burndown</title>
<desc id="desc">Burndown chart showing remaining story points and ideal remaining story points over time.</desc>
<rect width="100%" height="100%" fill="#ffffff"/>
<text x="70" y="32" font-family="Jost, Arial, Helvetica, sans-serif" font-size="22" font-weight="700" fill="#3A3A3A">Project Burndown</text>
<line x1="65" y1="355.0" x2="870" y2="355.0" stroke="#EEDEFF"/><text x="58" y="359.0" font-family="Overpass, Arial, Helvetica, sans-serif" font-size="12" text-anchor="end" fill="#3A3A3A">0</text>
<line x1="65" y1="345.9" x2="870" y2="345.9" stroke="#EEDEFF"/><text x="58" y="349.9" font-family="Overpass, Arial, Helvetica, sans-serif" font-size="12" text-anchor="end" fill="#3A3A3A">25</text>
<line x1="65" y1="336.8" x2="870" y2="336.8" stroke="#EEDEFF"/><text x="58" y="340.8" font-family="Overpass, Arial, Helvetica, sans-serif" font-size="12" text-anchor="end" fill="#3A3A3A">50</text>
<line x1="65" y1="327.7" x2="870" y2="327.7" stroke="#EEDEFF"/><text x="58" y="331.7" font-family="Overpass, Arial, Helvetica, sans-serif" font-size="12" text-anchor="end" fill="#3A3A3A">75</text>
<line x1="65" y1="318.6" x2="870" y2="318.6" stroke="#EEDEFF"/><text x="58" y="322.6" font-family="Overpass, Arial, Helvetica, sans-serif" font-size="12" text-anchor="end" fill="#3A3A3A">100</text>
<line x1="65" y1="309.5" x2="870" y2="309.5" stroke="#EEDEFF"/><text x="58" y="313.5" font-family="Overpass, Arial, Helvetica, sans-serif" font-size="12" text-anchor="end" fill="#3A3A3A">125</text>
<line x1="65" y1="300.5" x2="870" y2="300.5" stroke="#EEDEFF"/><text x="58" y="304.5" font-family="Overpass, Arial, Helvetica, sans-serif" font-size="12" text-anchor="end" fill="#3A3A3A">150</text>
<line x1="65" y1="291.4" x2="870" y2="291.4" stroke="#EEDEFF"/><text x="58" y="295.4" font-family="Overpass, Arial, Helvetica, sans-serif" font-size="12" text-anchor="end" fill="#3A3A3A">175</text>
<line x1="65" y1="282.3" x2="870" y2="282.3" stroke="#EEDEFF"/><text x="58" y="286.3" font-family="Overpass, Arial, Helvetica, sans-serif" font-size="12" text-anchor="end" fill="#3A3A3A">200</text>
<line x1="65" y1="273.2" x2="870" y2="273.2" stroke="#EEDEFF"/><text x="58" y="277.2" font-family="Overpass, Arial, Helvetica, sans-serif" font-size="12" text-anchor="end" fill="#3A3A3A">225</text>
<line x1="65" y1="264.1" x2="870" y2="264.1" stroke="#EEDEFF"/><text x="58" y="268.1" font-family="Overpass, Arial, Helvetica, sans-serif" font-size="12" text-anchor="end" fill="#3A3A3A">250</text>
<line x1="65" y1="255.0" x2="870" y2="255.0" stroke="#EEDEFF"/><text x="58" y="259.0" font-family="Overpass, Arial, Helvetica, sans-serif" font-size="12" text-anchor="end" fill="#3A3A3A">275</text>
<line x1="65" y1="245.9" x2="870" y2="245.9" stroke="#EEDEFF"/><text x="58" y="249.9" font-family="Overpass, Arial, Helvetica, sans-serif" font-size="12" text-anchor="end" fill="#3A3A3A">300</text>
<line x1="65" y1="236.8" x2="870" y2="236.8" stroke="#EEDEFF"/><text x="58" y="240.8" font-family="Overpass, Arial, Helvetica, sans-serif" font-size="12" text-anchor="end" fill="#3A3A3A">325</text>
<line x1="65" y1="227.7" x2="870" y2="227.7" stroke="#EEDEFF"/><text x="58" y="231.7" font-family="Overpass, Arial, Helvetica, sans-serif" font-size="12" text-anchor="end" fill="#3A3A3A">350</text>
<line x1="65" y1="218.6" x2="870" y2="218.6" stroke="#EEDEFF"/><text x="58" y="222.6" font-family="Overpass, Arial, Helvetica, sans-serif" font-size="12" text-anchor="end" fill="#3A3A3A">375</text>
<line x1="65" y1="209.5" x2="870" y2="209.5" stroke="#EEDEFF"/><text x="58" y="213.5" font-family="Overpass, Arial, Helvetica, sans-serif" font-size="12" text-anchor="end" fill="#3A3A3A">400</text>
<line x1="65" y1="200.5" x2="870" y2="200.5" stroke="#EEDEFF"/><text x="58" y="204.5" font-family="Overpass, Arial, Helvetica, sans-serif" font-size="12" text-anchor="end" fill="#3A3A3A">425</text>
<line x1="65" y1="191.4" x2="870" y2="191.4" stroke="#EEDEFF"/><text x="58" y="195.4" font-family="Overpass, Arial, Helvetica, sans-serif" font-size="12" text-anchor="end" fill="#3A3A3A">450</text>
<line x1="65" y1="182.3" x2="870" y2="182.3" stroke="#EEDEFF"/><text x="58" y="186.3" font-family="Overpass, Arial, Helvetica, sans-serif" font-size="12" text-anchor="end" fill="#3A3A3A">475</text>
<line x1="65" y1="173.2" x2="870" y2="173.2" stroke="#EEDEFF"/><text x="58" y="177.2" font-family="Overpass, Arial, Helvetica, sans-serif" font-size="12" text-anchor="end" fill="#3A3A3A">500</text>
<line x1="65" y1="164.1" x2="870" y2="164.1" stroke="#EEDEFF"/><text x="58" y="168.1" font-family="Overpass, Arial, Helvetica, sans-serif" font-size="12" text-anchor="end" fill="#3A3A3A">525</text>
<line x1="65" y1="155.0" x2="870" y2="155.0" stroke="#EEDEFF"/><text x="58" y="159.0" font-family="Overpass, Arial, Helvetica, sans-serif" font-size="12" text-anchor="end" fill="#3A3A3A">550</text>
<line x1="65" y1="145.9" x2="870" y2="145.9" stroke="#EEDEFF"/><text x="58" y="149.9" font-family="Overpass, Arial, Helvetica, sans-serif" font-size="12" text-anchor="end" fill="#3A3A3A">575</text>
<line x1="65" y1="136.8" x2="870" y2="136.8" stroke="#EEDEFF"/><text x="58" y="140.8" font-family="Overpass, Arial, Helvetica, sans-serif" font-size="12" text-anchor="end" fill="#3A3A3A">600</text>
<line x1="65" y1="127.7" x2="870" y2="127.7" stroke="#EEDEFF"/><text x="58" y="131.7" font-family="Overpass, Arial, Helvetica, sans-serif" font-size="12" text-anchor="end" fill="#3A3A3A">625</text>
<line x1="65" y1="118.6" x2="870" y2="118.6" stroke="#EEDEFF"/><text x="58" y="122.6" font-family="Overpass, Arial, Helvetica, sans-serif" font-size="12" text-anchor="end" fill="#3A3A3A">650</text>
<line x1="65" y1="109.5" x2="870" y2="109.5" stroke="#EEDEFF"/><text x="58" y="113.5" font-family="Overpass, Arial, Helvetica, sans-serif" font-size="12" text-anchor="end" fill="#3A3A3A">675</text>
<line x1="65" y1="100.5" x2="870" y2="100.5" stroke="#EEDEFF"/><text x="58" y="104.5" font-family="Overpass, Arial, Helvetica, sans-serif" font-size="12" text-anchor="end" fill="#3A3A3A">700</text>
<line x1="65" y1="91.4" x2="870" y2="91.4" stroke="#EEDEFF"/><text x="58" y="95.4" font-family="Overpass, Arial, Helvetica, sans-serif" font-size="12" text-anchor="end" fill="#3A3A3A">725</text>
<line x1="65" y1="82.3" x2="870" y2="82.3" stroke="#EEDEFF"/><text x="58" y="86.3" font-family="Overpass, Arial, Helvetica, sans-serif" font-size="12" text-anchor="end" fill="#3A3A3A">750</text>
<line x1="65" y1="73.2" x2="870" y2="73.2" stroke="#EEDEFF"/><text x="58" y="77.2" font-family="Overpass, Arial, Helvetica, sans-serif" font-size="12" text-anchor="end" fill="#3A3A3A">775</text>
<line x1="65" y1="64.1" x2="870" y2="64.1" stroke="#EEDEFF"/><text x="58" y="68.1" font-family="Overpass, Arial, Helvetica, sans-serif" font-size="12" text-anchor="end" fill="#3A3A3A">800</text>
<line x1="65" y1="55.0" x2="870" y2="55.0" stroke="#EEDEFF"/><text x="58" y="59.0" font-family="Overpass, Arial, Helvetica, sans-serif" font-size="12" text-anchor="end" fill="#3A3A3A">825</text>
<line x1="70.0" y1="355" x2="70.0" y2="360" stroke="#3A3A3A"/><text x="70.0" y="382" font-family="Overpass, Arial, Helvetica, sans-serif" font-size="12" text-anchor="middle" fill="#3A3A3A">27 Apr</text>
<line x1="151.8" y1="355" x2="151.8" y2="360" stroke="#3A3A3A"/><text x="151.8" y="382" font-family="Overpass, Arial, Helvetica, sans-serif" font-size="12" text-anchor="middle" fill="#3A3A3A">11 May</text>
<line x1="233.5" y1="355" x2="233.5" y2="360" stroke="#3A3A3A"/><text x="233.5" y="382" font-family="Overpass, Arial, Helvetica, sans-serif" font-size="12" text-anchor="middle" fill="#3A3A3A">25 May</text>
<line x1="315.3" y1="355" x2="315.3" y2="360" stroke="#3A3A3A"/><text x="315.3" y="382" font-family="Overpass, Arial, Helvetica, sans-serif" font-size="12" text-anchor="middle" fill="#3A3A3A">8 Jun</text>
<line x1="397.0" y1="355" x2="397.0" y2="360" stroke="#3A3A3A"/><text x="397.0" y="382" font-family="Overpass, Arial, Helvetica, sans-serif" font-size="12" text-anchor="middle" fill="#3A3A3A">22 Jun</text>
<line x1="478.8" y1="355" x2="478.8" y2="360" stroke="#3A3A3A"/><text x="478.8" y="382" font-family="Overpass, Arial, Helvetica, sans-serif" font-size="12" text-anchor="middle" fill="#3A3A3A">6 Jul</text>
<line x1="560.5" y1="355" x2="560.5" y2="360" stroke="#3A3A3A"/><text x="560.5" y="382" font-family="Overpass, Arial, Helvetica, sans-serif" font-size="12" text-anchor="middle" fill="#3A3A3A">20 Jul</text>
<line x1="642.3" y1="355" x2="642.3" y2="360" stroke="#3A3A3A"/><text x="642.3" y="382" font-family="Overpass, Arial, Helvetica, sans-serif" font-size="12" text-anchor="middle" fill="#3A3A3A">3 Aug</text>
<line x1="724.0" y1="355" x2="724.0" y2="360" stroke="#3A3A3A"/><text x="724.0" y="382" font-family="Overpass, Arial, Helvetica, sans-serif" font-size="12" text-anchor="middle" fill="#3A3A3A">17 Aug</text>
<line x1="805.8" y1="355" x2="805.8" y2="360" stroke="#3A3A3A"/><text x="805.8" y="382" font-family="Overpass, Arial, Helvetica, sans-serif" font-size="12" text-anchor="middle" fill="#3A3A3A">31 Aug</text>
<line x1="870.0" y1="355" x2="870.0" y2="360" stroke="#3A3A3A"/><text x="870.0" y="382" font-family="Overpass, Arial, Helvetica, sans-serif" font-size="12" text-anchor="middle" fill="#3A3A3A">11 Sep</text>
<line x1="70" y1="55" x2="70" y2="355" stroke="#3A3A3A"/>
<line x1="70" y1="355" x2="870" y2="355" stroke="#3A3A3A"/>
<text x="18" y="205.0" font-family="Overpass, Arial, Helvetica, sans-serif" font-size="13" text-anchor="middle" transform="rotate(-90 18 205.0)" fill="#3A3A3A">Story Points Remaining</text>
<text x="470.0" y="408" font-family="Overpass, Arial, Helvetica, sans-serif" font-size="13" text-anchor="middle" fill="#3A3A3A">Sprint Timeline</text>
<polyline points="70.0,56.1 75.8,58.0 81.7,60.0 87.5,62.0 93.4,63.9 99.2,65.9 105.0,67.8 110.9,69.8 116.7,71.7 122.6,73.7 128.4,75.6 134.2,77.6 140.1,79.5 145.9,81.5 151.8,83.4 157.6,85.4 163.4,87.3 169.3,89.3 175.1,91.3 180.9,93.2 186.8,95.2 192.6,97.1 198.5,99.1 204.3,101.0 210.1,103.0 216.0,104.9 221.8,106.9 227.7,108.8 233.5,110.8 239.3,112.7 245.2,114.7 251.0,116.7 256.9,118.6 262.7,120.6 268.5,122.5 274.4,124.5 280.2,126.4 286.1,128.4 291.9,130.3 297.7,132.3 303.6,134.2 309.4,136.2 315.3,138.1 321.1,140.1 326.9,142.1 332.8,144.0 338.6,146.0 344.5,147.9 350.3,149.9 356.1,151.8 362.0,153.8 367.8,155.7 373.6,157.7 379.5,159.6 385.3,161.6 391.2,163.5 397.0,165.5 402.8,167.5 408.7,169.4 414.5,171.4 420.4,173.3 426.2,175.3 432.0,177.2 437.9,179.2 443.7,181.1 449.6,183.1 455.4,185.0 461.2,187.0 467.1,188.9 472.9,190.9 478.8,192.8 484.6,194.8 490.4,196.8 496.3,198.7 502.1,200.7 508.0,202.6 513.8,204.6 519.6,206.5 525.5,208.5 531.3,210.4 537.2,212.4 543.0,214.3 548.8,216.3 554.7,218.2 560.5,220.2 566.4,222.2 572.2,224.1 578.0,226.1 583.9,228.0 589.7,230.0 595.5,231.9 601.4,233.9 607.2,235.8 613.1,237.8 618.9,239.7 624.7,241.7 630.6,243.6 636.4,245.6 642.3,247.5 648.1,249.5 653.9,251.5 659.8,253.4 665.6,255.4 671.5,257.3 677.3,259.3 683.1,261.2 689.0,263.2 694.8,265.1 700.7,267.1 706.5,269.0 712.3,271.0 718.2,272.9 724.0,274.9 729.9,276.9 735.7,278.8 741.5,280.8 747.4,282.7 753.2,284.7 759.1,286.6 764.9,288.6 770.7,290.5 776.6,292.5 782.4,294.4 788.2,296.4 794.1,298.3 799.9,300.3 805.8,302.3 811.6,304.2 817.4,306.2 823.3,308.1 829.1,310.1 835.0,312.0 840.8,314.0 846.6,315.9 852.5,317.9 858.3,319.8 864.2,321.8 870.0,323.7" fill="none" stroke="#B37DFF" stroke-width="3" stroke-dasharray="8 6"/>
<polyline points="70.0,56.1 75.8,57.2 81.7,57.2 87.5,61.2 93.4,63.0 99.2,63.0 105.0,65.2 110.9,65.2 116.7,65.5 122.6,65.5 128.4,66.6 134.2,71.7 140.1,77.5 145.9,87.7 151.8,91.0 157.6,95.4 163.4,97.2 169.3,97.2 175.1,97.5 180.9,99.4 186.8,101.2 192.6,108.8 198.5,114.6 204.3,118.6 210.1,127.4 216.0,127.4 221.8,127.4 227.7,127.4 233.5,127.4 239.3,128.1 245.2,128.1 251.0,128.1 256.9,129.2 262.7,129.2 268.5,129.2 274.4,129.2 280.2,129.2 286.1,130.3 291.9,130.3 297.7,130.3 303.6,130.3 309.4,130.3 315.3,130.3 321.1,130.3 326.9,130.3 332.8,130.3 338.6,130.3 344.5,130.3 350.3,130.3 356.1,130.3 362.0,137.9 367.8,148.8 373.6,155.4 379.5,156.1 385.3,156.1 391.2,156.1 397.0,156.8 402.8,161.2 408.7,161.9 414.5,163.4 420.4,164.1 426.2,164.1 432.0,165.2 437.9,168.1 443.7,172.1 449.6,177.2 455.4,179.7 461.2,180.5 467.1,180.5 472.9,180.5 478.8,184.1 484.6,184.8 490.4,186.3 496.3,186.3 502.1,186.3 508.0,186.3 513.8,186.3 519.6,188.5 525.5,189.2 531.3,189.9 537.2,190.6 543.0,190.6 548.8,190.6 554.7,192.5 560.5,197.2 566.4,198.6 572.2,200.1 578.0,201.9 583.9,203.4 589.7,204.8 595.5,209.9 601.4,215.4 607.2,216.8 613.1,227.4 618.9,233.9 624.7,242.6 630.6,242.6 636.4,242.6 642.3,242.6 648.1,242.6 653.9,242.6 659.8,242.6 665.6,243.7 671.5,245.5 677.3,247.4 683.1,249.2 689.0,252.1 694.8,252.1 700.7,252.1 706.5,253.9 712.3,256.8 718.2,267.7 724.0,269.5 729.9,269.5 735.7,272.5 741.5,275.0 747.4,277.9 753.2,277.9 759.1,277.9 764.9,279.7 770.7,279.7 776.6,279.7 782.4,279.7 788.2,280.5 794.1,284.1 799.9,287.0 805.8,296.5 811.6,308.5 817.4,325.5 823.3,329.5 829.1,329.5 835.0,329.5 840.8,329.5 846.6,329.5 852.5,329.5 858.3,329.5 864.2,329.5 870.0,333.9" fill="none" stroke="#8400FF" stroke-width="4"/>
<line x1="610" y1="75" x2="645" y2="75" stroke="#8400FF" stroke-width="4"/>
<text x="655" y="80" font-family="Overpass, Arial, Helvetica, sans-serif" font-size="13" fill="#3A3A3A">Remaining work</text>
<line x1="610" y1="97" x2="645" y2="97" stroke="#B37DFF" stroke-width="3" stroke-dasharray="8 6"/>
<text x="655" y="102" font-family="Overpass, Arial, Helvetica, sans-serif" font-size="13" fill="#3A3A3A">Ideal burndown</text>
</svg>
