<svg xmlns="http://www.w3.org/2000/svg" width="900" height="420" viewBox="0 0 900 420" role="img" aria-labelledby="title desc">
<title id="title">Project Burndown</title>
<desc id="desc">Burndown chart showing remaining story points and ideal remaining story points over time.</desc>
<rect width="100%" height="100%" fill="#ffffff"/>
<text x="70" y="32" font-family="Jost, Arial, Helvetica, sans-serif" font-size="22" font-weight="700" fill="#3A3A3A">Project Burndown</text>
<line x1="65" y1="355.0" x2="870" y2="355.0" stroke="#EEDEFF"/><text x="58" y="359.0" font-family="Overpass, Arial, Helvetica, sans-serif" font-size="12" text-anchor="end" fill="#3A3A3A">0</text>
<line x1="65" y1="327.7" x2="870" y2="327.7" stroke="#EEDEFF"/><text x="58" y="331.7" font-family="Overpass, Arial, Helvetica, sans-serif" font-size="12" text-anchor="end" fill="#3A3A3A">25</text>
<line x1="65" y1="300.5" x2="870" y2="300.5" stroke="#EEDEFF"/><text x="58" y="304.5" font-family="Overpass, Arial, Helvetica, sans-serif" font-size="12" text-anchor="end" fill="#3A3A3A">50</text>
<line x1="65" y1="273.2" x2="870" y2="273.2" stroke="#EEDEFF"/><text x="58" y="277.2" font-family="Overpass, Arial, Helvetica, sans-serif" font-size="12" text-anchor="end" fill="#3A3A3A">75</text>
<line x1="65" y1="245.9" x2="870" y2="245.9" stroke="#EEDEFF"/><text x="58" y="249.9" font-family="Overpass, Arial, Helvetica, sans-serif" font-size="12" text-anchor="end" fill="#3A3A3A">100</text>
<line x1="65" y1="218.6" x2="870" y2="218.6" stroke="#EEDEFF"/><text x="58" y="222.6" font-family="Overpass, Arial, Helvetica, sans-serif" font-size="12" text-anchor="end" fill="#3A3A3A">125</text>
<line x1="65" y1="191.4" x2="870" y2="191.4" stroke="#EEDEFF"/><text x="58" y="195.4" font-family="Overpass, Arial, Helvetica, sans-serif" font-size="12" text-anchor="end" fill="#3A3A3A">150</text>
<line x1="65" y1="164.1" x2="870" y2="164.1" stroke="#EEDEFF"/><text x="58" y="168.1" font-family="Overpass, Arial, Helvetica, sans-serif" font-size="12" text-anchor="end" fill="#3A3A3A">175</text>
<line x1="65" y1="136.8" x2="870" y2="136.8" stroke="#EEDEFF"/><text x="58" y="140.8" font-family="Overpass, Arial, Helvetica, sans-serif" font-size="12" text-anchor="end" fill="#3A3A3A">200</text>
<line x1="65" y1="109.5" x2="870" y2="109.5" stroke="#EEDEFF"/><text x="58" y="113.5" font-family="Overpass, Arial, Helvetica, sans-serif" font-size="12" text-anchor="end" fill="#3A3A3A">225</text>
<line x1="65" y1="82.3" x2="870" y2="82.3" stroke="#EEDEFF"/><text x="58" y="86.3" font-family="Overpass, Arial, Helvetica, sans-serif" font-size="12" text-anchor="end" fill="#3A3A3A">250</text>
<line x1="65" y1="55.0" x2="870" y2="55.0" stroke="#EEDEFF"/><text x="58" y="59.0" font-family="Overpass, Arial, Helvetica, sans-serif" font-size="12" text-anchor="end" fill="#3A3A3A">275</text>
<line x1="70.0" y1="355" x2="70.0" y2="360" stroke="#3A3A3A"/><text x="70.0" y="382" font-family="Overpass, Arial, Helvetica, sans-serif" font-size="12" text-anchor="middle" fill="#3A3A3A">27 Apr</text>
<line x1="206.6" y1="355" x2="206.6" y2="360" stroke="#3A3A3A"/><text x="206.6" y="382" font-family="Overpass, Arial, Helvetica, sans-serif" font-size="12" text-anchor="middle" fill="#3A3A3A">4 May</text>
<line x1="343.2" y1="355" x2="343.2" y2="360" stroke="#3A3A3A"/><text x="343.2" y="382" font-family="Overpass, Arial, Helvetica, sans-serif" font-size="12" text-anchor="middle" fill="#3A3A3A">11 May</text>
<line x1="479.8" y1="355" x2="479.8" y2="360" stroke="#3A3A3A"/><text x="479.8" y="382" font-family="Overpass, Arial, Helvetica, sans-serif" font-size="12" text-anchor="middle" fill="#3A3A3A">18 May</text>
<line x1="616.3" y1="355" x2="616.3" y2="360" stroke="#3A3A3A"/><text x="616.3" y="382" font-family="Overpass, Arial, Helvetica, sans-serif" font-size="12" text-anchor="middle" fill="#3A3A3A">25 May</text>
<line x1="752.9" y1="355" x2="752.9" y2="360" stroke="#3A3A3A"/><text x="752.9" y="382" font-family="Overpass, Arial, Helvetica, sans-serif" font-size="12" text-anchor="middle" fill="#3A3A3A">1 Jun</text>
<line x1="870.0" y1="355" x2="870.0" y2="360" stroke="#3A3A3A"/><text x="870.0" y="382" font-family="Overpass, Arial, Helvetica, sans-serif" font-size="12" text-anchor="middle" fill="#3A3A3A">7 Jun</text>
<line x1="70" y1="55" x2="70" y2="355" stroke="#3A3A3A"/>
<line x1="70" y1="355" x2="870" y2="355" stroke="#3A3A3A"/>
<text x="18" y="205.0" font-family="Overpass, Arial, Helvetica, sans-serif" font-size="13" text-anchor="middle" transform="rotate(-90 18 205.0)" fill="#3A3A3A">Story Points Remaining</text>
<text x="470.0" y="408" font-family="Overpass, Arial, Helvetica, sans-serif" font-size="13" text-anchor="middle" fill="#3A3A3A">Sprint Timeline</text>
<polyline points="70.0,56.1 89.5,62.2 109.0,68.3 128.5,74.4 148.0,80.5 167.6,86.6 187.1,92.7 206.6,98.8 226.1,104.9 245.6,111.0 265.1,117.1 284.6,123.2 304.1,129.3 323.7,135.4 343.2,141.5 362.7,147.6 382.2,153.7 401.7,159.8 421.2,165.9 440.7,172.0 460.2,178.1 479.8,184.2 499.3,190.3 518.8,196.4 538.3,202.5 557.8,208.6 577.3,214.7 596.8,220.8 616.3,226.9 635.9,233.0 655.4,239.1 674.9,245.2 694.4,251.3 713.9,257.4 733.4,263.5 752.9,269.6 772.4,275.7 792.0,281.8 811.5,287.9 831.0,294.0 850.5,300.1 870.0,306.2" fill="none" stroke="#B37DFF" stroke-width="3" stroke-dasharray="8 6"/>
<polyline points="70.0,56.1 89.5,59.4 109.0,59.4 128.5,71.4 148.0,76.8 167.6,76.8 187.1,83.4 206.6,83.4 226.1,84.5 245.6,84.5 265.1,87.7 284.6,103.0 304.1,120.5 323.7,151.0 343.2,160.8 362.7,173.9 382.2,179.4 401.7,179.4 421.2,180.5 440.7,185.9 460.2,191.4 479.8,214.3 499.3,231.7 518.8,243.7 538.3,269.9 557.8,269.9 577.3,269.9 596.8,269.9 616.3,269.9 635.9,272.1 655.4,272.1 674.9,272.1 694.4,275.4 713.9,275.4 733.4,275.4 752.9,275.4 772.4,275.4 792.0,278.6 811.5,278.6 831.0,278.6 850.5,278.6 870.0,278.6" fill="none" stroke="#8400FF" stroke-width="4"/>
<line x1="610" y1="75" x2="645" y2="75" stroke="#8400FF" stroke-width="4"/>
<text x="655" y="80" font-family="Overpass, Arial, Helvetica, sans-serif" font-size="13" fill="#3A3A3A">Remaining work</text>
<line x1="610" y1="97" x2="645" y2="97" stroke="#B37DFF" stroke-width="3" stroke-dasharray="8 6"/>
<text x="655" y="102" font-family="Overpass, Arial, Helvetica, sans-serif" font-size="13" fill="#3A3A3A">Ideal burndown</text>
</svg>
