<svg xmlns="http://www.w3.org/2000/svg" width="900" height="420" viewBox="0 0 900 420" role="img" aria-labelledby="title desc">
<title id="title">Project Burndown</title>
<desc id="desc">Burndown chart showing remaining story points and ideal remaining story points over time.</desc>
<rect width="100%" height="100%" fill="#090054"/>
<text x="70" y="32" font-family="Jost, Arial, Helvetica, sans-serif" font-size="22" font-weight="700" fill="#EEDEFF">Project Burndown</text>
<line x1="65" y1="355.0" x2="870" y2="355.0" stroke="#3A3A3A"/><text x="58" y="359.0" font-family="Overpass, Arial, Helvetica, sans-serif" font-size="12" text-anchor="end" fill="#EEDEFF">0</text>
<line x1="65" y1="343.0" x2="870" y2="343.0" stroke="#3A3A3A"/><text x="58" y="347.0" font-family="Overpass, Arial, Helvetica, sans-serif" font-size="12" text-anchor="end" fill="#EEDEFF">25</text>
<line x1="65" y1="331.0" x2="870" y2="331.0" stroke="#3A3A3A"/><text x="58" y="335.0" font-family="Overpass, Arial, Helvetica, sans-serif" font-size="12" text-anchor="end" fill="#EEDEFF">50</text>
<line x1="65" y1="319.0" x2="870" y2="319.0" stroke="#3A3A3A"/><text x="58" y="323.0" font-family="Overpass, Arial, Helvetica, sans-serif" font-size="12" text-anchor="end" fill="#EEDEFF">75</text>
<line x1="65" y1="307.0" x2="870" y2="307.0" stroke="#3A3A3A"/><text x="58" y="311.0" font-family="Overpass, Arial, Helvetica, sans-serif" font-size="12" text-anchor="end" fill="#EEDEFF">100</text>
<line x1="65" y1="295.0" x2="870" y2="295.0" stroke="#3A3A3A"/><text x="58" y="299.0" font-family="Overpass, Arial, Helvetica, sans-serif" font-size="12" text-anchor="end" fill="#EEDEFF">125</text>
<line x1="65" y1="283.0" x2="870" y2="283.0" stroke="#3A3A3A"/><text x="58" y="287.0" font-family="Overpass, Arial, Helvetica, sans-serif" font-size="12" text-anchor="end" fill="#EEDEFF">150</text>
<line x1="65" y1="271.0" x2="870" y2="271.0" stroke="#3A3A3A"/><text x="58" y="275.0" font-family="Overpass, Arial, Helvetica, sans-serif" font-size="12" text-anchor="end" fill="#EEDEFF">175</text>
<line x1="65" y1="259.0" x2="870" y2="259.0" stroke="#3A3A3A"/><text x="58" y="263.0" font-family="Overpass, Arial, Helvetica, sans-serif" font-size="12" text-anchor="end" fill="#EEDEFF">200</text>
<line x1="65" y1="247.0" x2="870" y2="247.0" stroke="#3A3A3A"/><text x="58" y="251.0" font-family="Overpass, Arial, Helvetica, sans-serif" font-size="12" text-anchor="end" fill="#EEDEFF">225</text>
<line x1="65" y1="235.0" x2="870" y2="235.0" stroke="#3A3A3A"/><text x="58" y="239.0" font-family="Overpass, Arial, Helvetica, sans-serif" font-size="12" text-anchor="end" fill="#EEDEFF">250</text>
<line x1="65" y1="223.0" x2="870" y2="223.0" stroke="#3A3A3A"/><text x="58" y="227.0" font-family="Overpass, Arial, Helvetica, sans-serif" font-size="12" text-anchor="end" fill="#EEDEFF">275</text>
<line x1="65" y1="211.0" x2="870" y2="211.0" stroke="#3A3A3A"/><text x="58" y="215.0" font-family="Overpass, Arial, Helvetica, sans-serif" font-size="12" text-anchor="end" fill="#EEDEFF">300</text>
<line x1="65" y1="199.0" x2="870" y2="199.0" stroke="#3A3A3A"/><text x="58" y="203.0" font-family="Overpass, Arial, Helvetica, sans-serif" font-size="12" text-anchor="end" fill="#EEDEFF">325</text>
<line x1="65" y1="187.0" x2="870" y2="187.0" stroke="#3A3A3A"/><text x="58" y="191.0" font-family="Overpass, Arial, Helvetica, sans-serif" font-size="12" text-anchor="end" fill="#EEDEFF">350</text>
<line x1="65" y1="175.0" x2="870" y2="175.0" stroke="#3A3A3A"/><text x="58" y="179.0" font-family="Overpass, Arial, Helvetica, sans-serif" font-size="12" text-anchor="end" fill="#EEDEFF">375</text>
<line x1="65" y1="163.0" x2="870" y2="163.0" stroke="#3A3A3A"/><text x="58" y="167.0" font-family="Overpass, Arial, Helvetica, sans-serif" font-size="12" text-anchor="end" fill="#EEDEFF">400</text>
<line x1="65" y1="151.0" x2="870" y2="151.0" stroke="#3A3A3A"/><text x="58" y="155.0" font-family="Overpass, Arial, Helvetica, sans-serif" font-size="12" text-anchor="end" fill="#EEDEFF">425</text>
<line x1="65" y1="139.0" x2="870" y2="139.0" stroke="#3A3A3A"/><text x="58" y="143.0" font-family="Overpass, Arial, Helvetica, sans-serif" font-size="12" text-anchor="end" fill="#EEDEFF">450</text>
<line x1="65" y1="127.0" x2="870" y2="127.0" stroke="#3A3A3A"/><text x="58" y="131.0" font-family="Overpass, Arial, Helvetica, sans-serif" font-size="12" text-anchor="end" fill="#EEDEFF">475</text>
<line x1="65" y1="115.0" x2="870" y2="115.0" stroke="#3A3A3A"/><text x="58" y="119.0" font-family="Overpass, Arial, Helvetica, sans-serif" font-size="12" text-anchor="end" fill="#EEDEFF">500</text>
<line x1="65" y1="103.0" x2="870" y2="103.0" stroke="#3A3A3A"/><text x="58" y="107.0" font-family="Overpass, Arial, Helvetica, sans-serif" font-size="12" text-anchor="end" fill="#EEDEFF">525</text>
<line x1="65" y1="91.0" x2="870" y2="91.0" stroke="#3A3A3A"/><text x="58" y="95.0" font-family="Overpass, Arial, Helvetica, sans-serif" font-size="12" text-anchor="end" fill="#EEDEFF">550</text>
<line x1="65" y1="79.0" x2="870" y2="79.0" stroke="#3A3A3A"/><text x="58" y="83.0" font-family="Overpass, Arial, Helvetica, sans-serif" font-size="12" text-anchor="end" fill="#EEDEFF">575</text>
<line x1="65" y1="67.0" x2="870" y2="67.0" stroke="#3A3A3A"/><text x="58" y="71.0" font-family="Overpass, Arial, Helvetica, sans-serif" font-size="12" text-anchor="end" fill="#EEDEFF">600</text>
<line x1="65" y1="55.0" x2="870" y2="55.0" stroke="#3A3A3A"/><text x="58" y="59.0" font-family="Overpass, Arial, Helvetica, sans-serif" font-size="12" text-anchor="end" fill="#EEDEFF">625</text>
<line x1="70.0" y1="355" x2="70.0" y2="360" stroke="#EEDEFF"/><text x="70.0" y="382" font-family="Overpass, Arial, Helvetica, sans-serif" font-size="12" text-anchor="middle" fill="#EEDEFF">27 Apr</text>
<line x1="170.0" y1="355" x2="170.0" y2="360" stroke="#EEDEFF"/><text x="170.0" y="382" font-family="Overpass, Arial, Helvetica, sans-serif" font-size="12" text-anchor="middle" fill="#EEDEFF">11 May</text>
<line x1="270.0" y1="355" x2="270.0" y2="360" stroke="#EEDEFF"/><text x="270.0" y="382" font-family="Overpass, Arial, Helvetica, sans-serif" font-size="12" text-anchor="middle" fill="#EEDEFF">25 May</text>
<line x1="370.0" y1="355" x2="370.0" y2="360" stroke="#EEDEFF"/><text x="370.0" y="382" font-family="Overpass, Arial, Helvetica, sans-serif" font-size="12" text-anchor="middle" fill="#EEDEFF">8 Jun</text>
<line x1="470.0" y1="355" x2="470.0" y2="360" stroke="#EEDEFF"/><text x="470.0" y="382" font-family="Overpass, Arial, Helvetica, sans-serif" font-size="12" text-anchor="middle" fill="#EEDEFF">22 Jun</text>
<line x1="570.0" y1="355" x2="570.0" y2="360" stroke="#EEDEFF"/><text x="570.0" y="382" font-family="Overpass, Arial, Helvetica, sans-serif" font-size="12" text-anchor="middle" fill="#EEDEFF">6 Jul</text>
<line x1="670.0" y1="355" x2="670.0" y2="360" stroke="#EEDEFF"/><text x="670.0" y="382" font-family="Overpass, Arial, Helvetica, sans-serif" font-size="12" text-anchor="middle" fill="#EEDEFF">20 Jul</text>
<line x1="770.0" y1="355" x2="770.0" y2="360" stroke="#EEDEFF"/><text x="770.0" y="382" font-family="Overpass, Arial, Helvetica, sans-serif" font-size="12" text-anchor="middle" fill="#EEDEFF">3 Aug</text>
<line x1="870.0" y1="355" x2="870.0" y2="360" stroke="#EEDEFF"/><text x="870.0" y="382" font-family="Overpass, Arial, Helvetica, sans-serif" font-size="12" text-anchor="middle" fill="#EEDEFF">17 Aug</text>
<line x1="70" y1="55" x2="70" y2="355" stroke="#EEDEFF"/>
<line x1="70" y1="355" x2="870" y2="355" stroke="#EEDEFF"/>
<text x="18" y="205.0" font-family="Overpass, Arial, Helvetica, sans-serif" font-size="13" text-anchor="middle" transform="rotate(-90 18 205.0)" fill="#EEDEFF">Story Points Remaining</text>
<text x="470.0" y="408" font-family="Overpass, Arial, Helvetica, sans-serif" font-size="13" text-anchor="middle" fill="#EEDEFF">Sprint Timeline</text>
<polyline points="70.0,59.8 77.1,62.4 84.3,65.0 91.4,67.6 98.6,70.2 105.7,72.7 112.9,75.3 120.0,77.9 127.1,80.5 134.3,83.1 141.4,85.7 148.6,88.3 155.7,90.9 162.9,93.5 170.0,96.1 177.1,98.6 184.3,101.2 191.4,103.8 198.6,106.4 205.7,109.0 212.9,111.6 220.0,114.2 227.1,116.8 234.3,119.4 241.4,121.9 248.6,124.5 255.7,127.1 262.9,129.7 270.0,132.3 277.1,134.9 284.3,137.5 291.4,140.1 298.6,142.7 305.7,145.3 312.9,147.8 320.0,150.4 327.1,153.0 334.3,155.6 341.4,158.2 348.6,160.8 355.7,163.4 362.9,166.0 370.0,168.6 377.1,171.1 384.3,173.7 391.4,176.3 398.6,178.9 405.7,181.5 412.9,184.1 420.0,186.7 427.1,189.3 434.3,191.9 441.4,194.5 448.6,197.0 455.7,199.6 462.9,202.2 470.0,204.8 477.1,207.4 484.3,210.0 491.4,212.6 498.6,215.2 505.7,217.8 512.9,220.3 520.0,222.9 527.1,225.5 534.3,228.1 541.4,230.7 548.6,233.3 555.7,235.9 562.9,238.5 570.0,241.1 577.1,243.7 584.3,246.2 591.4,248.8 598.6,251.4 605.7,254.0 612.9,256.6 620.0,259.2 627.1,261.8 634.3,264.4 641.4,267.0 648.6,269.5 655.7,272.1 662.9,274.7 670.0,277.3 677.1,279.9 684.3,282.5 691.4,285.1 698.6,287.7 705.7,290.3 712.9,292.9 720.0,295.4 727.1,298.0 734.3,300.6 741.4,303.2 748.6,305.8 755.7,308.4 762.9,311.0 770.0,313.6 777.1,316.2 784.3,318.7 791.4,321.3 798.6,323.9 805.7,326.5 812.9,329.1 820.0,331.7 827.1,334.3 834.3,336.9 841.4,339.5 848.6,342.1 855.7,344.6 862.9,347.2 870.0,349.8" fill="none" stroke="#B37DFF" stroke-width="3" stroke-dasharray="8 6"/>
<polyline points="70.0,59.8 77.1,61.2 84.3,61.2 91.4,66.5 98.6,68.9 105.7,68.9 112.9,71.8 120.0,71.8 127.1,72.3 134.3,72.3 141.4,73.7 148.6,80.4 155.7,88.1 162.9,101.6 170.0,105.9 177.1,111.6 184.3,114.0 191.4,114.0 198.6,114.5 205.7,116.9 212.9,119.3 220.0,129.4 227.1,137.1 234.3,142.4 241.4,153.9 248.6,153.9 255.7,153.9 262.9,153.9 270.0,153.9 277.1,154.8 284.3,154.8 291.4,154.8 298.6,156.3 305.7,156.3 312.9,156.3 320.0,156.3 327.1,156.3 334.3,157.7 341.4,157.7 348.6,157.7 355.7,157.7 362.9,157.7 370.0,157.7 377.1,157.7 384.3,157.7 391.4,157.7 398.6,157.7 405.7,157.7 412.9,157.7 420.0,157.7 427.1,167.8 434.3,182.2 441.4,190.8 448.6,191.8 455.7,191.8 462.9,191.8 470.0,192.8 477.1,198.5 484.3,199.5 491.4,201.4 498.6,202.4 505.7,202.4 512.9,203.8 520.0,207.6 527.1,212.9 534.3,219.6 541.4,223.0 548.6,224.0 555.7,224.0 562.9,224.0 570.0,228.8 577.1,229.7 584.3,231.6 591.4,231.6 598.6,231.6 605.7,231.6 612.9,231.6 620.0,234.5 627.1,235.5 634.3,236.4 641.4,237.4 648.6,237.4 655.7,237.4 662.9,239.8 670.0,246.0 677.1,248.0 684.3,249.9 691.4,252.3 698.6,254.2 705.7,256.1 712.9,262.8 720.0,270.0 727.1,272.0 734.3,285.9 741.4,294.5 748.6,306.0 755.7,306.0 762.9,306.0 770.0,306.0 777.1,306.0 784.3,306.0 791.4,306.0 798.6,307.5 805.7,309.9 812.9,312.3 820.0,314.7 827.1,318.5 834.3,318.5 841.4,318.5 848.6,320.9 855.7,324.8 862.9,339.2 870.0,339.2" fill="none" stroke="#D6B3FF" stroke-width="4"/>
<line x1="610" y1="75" x2="645" y2="75" stroke="#D6B3FF" stroke-width="4"/>
<text x="655" y="80" font-family="Overpass, Arial, Helvetica, sans-serif" font-size="13" fill="#EEDEFF">Remaining work</text>
<line x1="610" y1="97" x2="645" y2="97" stroke="#B37DFF" stroke-width="3" stroke-dasharray="8 6"/>
<text x="655" y="102" font-family="Overpass, Arial, Helvetica, sans-serif" font-size="13" fill="#EEDEFF">Ideal burndown</text>
</svg>
