<svg xmlns="http://www.w3.org/2000/svg" width="900" height="420" viewBox="0 0 900 420" role="img" aria-labelledby="title desc">
<title id="title">Project Burndown</title>
<desc id="desc">Burndown chart showing remaining story points and ideal remaining story points over time.</desc>
<rect width="100%" height="100%" fill="#ffffff"/>
<text x="70" y="32" font-family="Jost, Arial, Helvetica, sans-serif" font-size="22" font-weight="700" fill="#3A3A3A">Project Burndown</text>
<line x1="65" y1="355.0" x2="870" y2="355.0" stroke="#EEDEFF"/><text x="58" y="359.0" font-family="Overpass, Arial, Helvetica, sans-serif" font-size="12" text-anchor="end" fill="#3A3A3A">0</text>
<line x1="65" y1="338.3" x2="870" y2="338.3" stroke="#EEDEFF"/><text x="58" y="342.3" font-family="Overpass, Arial, Helvetica, sans-serif" font-size="12" text-anchor="end" fill="#3A3A3A">25</text>
<line x1="65" y1="321.7" x2="870" y2="321.7" stroke="#EEDEFF"/><text x="58" y="325.7" font-family="Overpass, Arial, Helvetica, sans-serif" font-size="12" text-anchor="end" fill="#3A3A3A">50</text>
<line x1="65" y1="305.0" x2="870" y2="305.0" stroke="#EEDEFF"/><text x="58" y="309.0" font-family="Overpass, Arial, Helvetica, sans-serif" font-size="12" text-anchor="end" fill="#3A3A3A">75</text>
<line x1="65" y1="288.3" x2="870" y2="288.3" stroke="#EEDEFF"/><text x="58" y="292.3" font-family="Overpass, Arial, Helvetica, sans-serif" font-size="12" text-anchor="end" fill="#3A3A3A">100</text>
<line x1="65" y1="271.7" x2="870" y2="271.7" stroke="#EEDEFF"/><text x="58" y="275.7" font-family="Overpass, Arial, Helvetica, sans-serif" font-size="12" text-anchor="end" fill="#3A3A3A">125</text>
<line x1="65" y1="255.0" x2="870" y2="255.0" stroke="#EEDEFF"/><text x="58" y="259.0" font-family="Overpass, Arial, Helvetica, sans-serif" font-size="12" text-anchor="end" fill="#3A3A3A">150</text>
<line x1="65" y1="238.3" x2="870" y2="238.3" stroke="#EEDEFF"/><text x="58" y="242.3" font-family="Overpass, Arial, Helvetica, sans-serif" font-size="12" text-anchor="end" fill="#3A3A3A">175</text>
<line x1="65" y1="221.7" x2="870" y2="221.7" stroke="#EEDEFF"/><text x="58" y="225.7" font-family="Overpass, Arial, Helvetica, sans-serif" font-size="12" text-anchor="end" fill="#3A3A3A">200</text>
<line x1="65" y1="205.0" x2="870" y2="205.0" stroke="#EEDEFF"/><text x="58" y="209.0" font-family="Overpass, Arial, Helvetica, sans-serif" font-size="12" text-anchor="end" fill="#3A3A3A">225</text>
<line x1="65" y1="188.3" x2="870" y2="188.3" stroke="#EEDEFF"/><text x="58" y="192.3" font-family="Overpass, Arial, Helvetica, sans-serif" font-size="12" text-anchor="end" fill="#3A3A3A">250</text>
<line x1="65" y1="171.7" x2="870" y2="171.7" stroke="#EEDEFF"/><text x="58" y="175.7" font-family="Overpass, Arial, Helvetica, sans-serif" font-size="12" text-anchor="end" fill="#3A3A3A">275</text>
<line x1="65" y1="155.0" x2="870" y2="155.0" stroke="#EEDEFF"/><text x="58" y="159.0" font-family="Overpass, Arial, Helvetica, sans-serif" font-size="12" text-anchor="end" fill="#3A3A3A">300</text>
<line x1="65" y1="138.3" x2="870" y2="138.3" stroke="#EEDEFF"/><text x="58" y="142.3" font-family="Overpass, Arial, Helvetica, sans-serif" font-size="12" text-anchor="end" fill="#3A3A3A">325</text>
<line x1="65" y1="121.7" x2="870" y2="121.7" stroke="#EEDEFF"/><text x="58" y="125.7" font-family="Overpass, Arial, Helvetica, sans-serif" font-size="12" text-anchor="end" fill="#3A3A3A">350</text>
<line x1="65" y1="105.0" x2="870" y2="105.0" stroke="#EEDEFF"/><text x="58" y="109.0" font-family="Overpass, Arial, Helvetica, sans-serif" font-size="12" text-anchor="end" fill="#3A3A3A">375</text>
<line x1="65" y1="88.3" x2="870" y2="88.3" stroke="#EEDEFF"/><text x="58" y="92.3" font-family="Overpass, Arial, Helvetica, sans-serif" font-size="12" text-anchor="end" fill="#3A3A3A">400</text>
<line x1="65" y1="71.7" x2="870" y2="71.7" stroke="#EEDEFF"/><text x="58" y="75.7" font-family="Overpass, Arial, Helvetica, sans-serif" font-size="12" text-anchor="end" fill="#3A3A3A">425</text>
<line x1="65" y1="55.0" x2="870" y2="55.0" stroke="#EEDEFF"/><text x="58" y="59.0" font-family="Overpass, Arial, Helvetica, sans-serif" font-size="12" text-anchor="end" fill="#3A3A3A">450</text>
<line x1="70.0" y1="355" x2="70.0" y2="360" stroke="#3A3A3A"/><text x="70.0" y="382" font-family="Overpass, Arial, Helvetica, sans-serif" font-size="12" text-anchor="middle" fill="#3A3A3A">27 Apr</text>
<line x1="170.0" y1="355" x2="170.0" y2="360" stroke="#3A3A3A"/><text x="170.0" y="382" font-family="Overpass, Arial, Helvetica, sans-serif" font-size="12" text-anchor="middle" fill="#3A3A3A">4 May</text>
<line x1="270.0" y1="355" x2="270.0" y2="360" stroke="#3A3A3A"/><text x="270.0" y="382" font-family="Overpass, Arial, Helvetica, sans-serif" font-size="12" text-anchor="middle" fill="#3A3A3A">11 May</text>
<line x1="370.0" y1="355" x2="370.0" y2="360" stroke="#3A3A3A"/><text x="370.0" y="382" font-family="Overpass, Arial, Helvetica, sans-serif" font-size="12" text-anchor="middle" fill="#3A3A3A">18 May</text>
<line x1="470.0" y1="355" x2="470.0" y2="360" stroke="#3A3A3A"/><text x="470.0" y="382" font-family="Overpass, Arial, Helvetica, sans-serif" font-size="12" text-anchor="middle" fill="#3A3A3A">25 May</text>
<line x1="570.0" y1="355" x2="570.0" y2="360" stroke="#3A3A3A"/><text x="570.0" y="382" font-family="Overpass, Arial, Helvetica, sans-serif" font-size="12" text-anchor="middle" fill="#3A3A3A">1 Jun</text>
<line x1="670.0" y1="355" x2="670.0" y2="360" stroke="#3A3A3A"/><text x="670.0" y="382" font-family="Overpass, Arial, Helvetica, sans-serif" font-size="12" text-anchor="middle" fill="#3A3A3A">8 Jun</text>
<line x1="770.0" y1="355" x2="770.0" y2="360" stroke="#3A3A3A"/><text x="770.0" y="382" font-family="Overpass, Arial, Helvetica, sans-serif" font-size="12" text-anchor="middle" fill="#3A3A3A">15 Jun</text>
<line x1="870.0" y1="355" x2="870.0" y2="360" stroke="#3A3A3A"/><text x="870.0" y="382" font-family="Overpass, Arial, Helvetica, sans-serif" font-size="12" text-anchor="middle" fill="#3A3A3A">22 Jun</text>
<line x1="70" y1="55" x2="70" y2="355" stroke="#3A3A3A"/>
<line x1="70" y1="355" x2="870" y2="355" stroke="#3A3A3A"/>
<text x="18" y="205.0" font-family="Overpass, Arial, Helvetica, sans-serif" font-size="13" text-anchor="middle" transform="rotate(-90 18 205.0)" fill="#3A3A3A">Story Points Remaining</text>
<text x="470.0" y="408" font-family="Overpass, Arial, Helvetica, sans-serif" font-size="13" text-anchor="middle" fill="#3A3A3A">Sprint Timeline</text>
<polyline points="70.0,59.0 84.3,63.4 98.6,67.8 112.9,72.3 127.1,76.7 141.4,81.1 155.7,85.5 170.0,89.9 184.3,94.3 198.6,98.8 212.9,103.2 227.1,107.6 241.4,112.0 255.7,116.4 270.0,120.9 284.3,125.3 298.6,129.7 312.9,134.1 327.1,138.5 341.4,142.9 355.7,147.4 370.0,151.8 384.3,156.2 398.6,160.6 412.9,165.0 427.1,169.4 441.4,173.9 455.7,178.3 470.0,182.7 484.3,187.1 498.6,191.5 512.9,196.0 527.1,200.4 541.4,204.8 555.7,209.2 570.0,213.6 584.3,218.0 598.6,222.5 612.9,226.9 627.1,231.3 641.4,235.7 655.7,240.1 670.0,244.6 684.3,249.0 698.6,253.4 712.9,257.8 727.1,262.2 741.4,266.6 755.7,271.1 770.0,275.5 784.3,279.9 798.6,284.3 812.9,288.7 827.1,293.1 841.4,297.6 855.7,302.0 870.0,306.4" fill="none" stroke="#B37DFF" stroke-width="3" stroke-dasharray="8 6"/>
<polyline points="70.0,59.0 84.3,61.0 98.6,61.0 112.9,68.3 127.1,71.7 141.4,71.7 155.7,75.7 170.0,75.7 184.3,76.3 198.6,76.3 212.9,78.3 227.1,87.7 241.4,98.3 255.7,117.0 270.0,123.0 284.3,131.0 298.6,134.3 312.9,134.3 327.1,135.0 341.4,138.3 355.7,141.7 370.0,155.7 384.3,166.3 398.6,173.7 412.9,189.7 427.1,189.7 441.4,189.7 455.7,189.7 470.0,189.7 484.3,191.0 498.6,191.0 512.9,191.0 527.1,193.0 541.4,193.0 555.7,193.0 570.0,193.0 584.3,193.0 598.6,195.0 612.9,195.0 627.1,195.0 641.4,195.0 655.7,195.0 670.0,195.0 684.3,195.0 698.6,195.0 712.9,195.0 727.1,195.0 741.4,195.0 755.7,195.0 770.0,195.0 784.3,209.0 798.6,229.0 812.9,241.0 827.1,242.3 841.4,242.3 855.7,242.3 870.0,243.7" fill="none" stroke="#8400FF" stroke-width="4"/>
<line x1="610" y1="75" x2="645" y2="75" stroke="#8400FF" stroke-width="4"/>
<text x="655" y="80" font-family="Overpass, Arial, Helvetica, sans-serif" font-size="13" fill="#3A3A3A">Remaining work</text>
<line x1="610" y1="97" x2="645" y2="97" stroke="#B37DFF" stroke-width="3" stroke-dasharray="8 6"/>
<text x="655" y="102" font-family="Overpass, Arial, Helvetica, sans-serif" font-size="13" fill="#3A3A3A">Ideal burndown</text>
</svg>
