<svg xmlns="http://www.w3.org/2000/svg" width="900" height="420" viewBox="0 0 900 420" role="img" aria-labelledby="title desc">
<title id="title">Project Burndown</title>
<desc id="desc">Burndown chart showing remaining story points and ideal remaining story points over time.</desc>
<rect width="100%" height="100%" fill="#ffffff"/>
<text x="70" y="32" font-family="Jost, Arial, Helvetica, sans-serif" font-size="22" font-weight="700" fill="#3A3A3A">Project Burndown</text>
<line x1="65" y1="355.0" x2="870" y2="355.0" stroke="#EEDEFF"/><text x="58" y="359.0" font-family="Overpass, Arial, Helvetica, sans-serif" font-size="12" text-anchor="end" fill="#3A3A3A">0</text>
<line x1="65" y1="343.9" x2="870" y2="343.9" stroke="#EEDEFF"/><text x="58" y="347.9" font-family="Overpass, Arial, Helvetica, sans-serif" font-size="12" text-anchor="end" fill="#3A3A3A">25</text>
<line x1="65" y1="332.8" x2="870" y2="332.8" stroke="#EEDEFF"/><text x="58" y="336.8" font-family="Overpass, Arial, Helvetica, sans-serif" font-size="12" text-anchor="end" fill="#3A3A3A">50</text>
<line x1="65" y1="321.7" x2="870" y2="321.7" stroke="#EEDEFF"/><text x="58" y="325.7" font-family="Overpass, Arial, Helvetica, sans-serif" font-size="12" text-anchor="end" fill="#3A3A3A">75</text>
<line x1="65" y1="310.6" x2="870" y2="310.6" stroke="#EEDEFF"/><text x="58" y="314.6" font-family="Overpass, Arial, Helvetica, sans-serif" font-size="12" text-anchor="end" fill="#3A3A3A">100</text>
<line x1="65" y1="299.4" x2="870" y2="299.4" stroke="#EEDEFF"/><text x="58" y="303.4" font-family="Overpass, Arial, Helvetica, sans-serif" font-size="12" text-anchor="end" fill="#3A3A3A">125</text>
<line x1="65" y1="288.3" x2="870" y2="288.3" stroke="#EEDEFF"/><text x="58" y="292.3" font-family="Overpass, Arial, Helvetica, sans-serif" font-size="12" text-anchor="end" fill="#3A3A3A">150</text>
<line x1="65" y1="277.2" x2="870" y2="277.2" stroke="#EEDEFF"/><text x="58" y="281.2" font-family="Overpass, Arial, Helvetica, sans-serif" font-size="12" text-anchor="end" fill="#3A3A3A">175</text>
<line x1="65" y1="266.1" x2="870" y2="266.1" stroke="#EEDEFF"/><text x="58" y="270.1" font-family="Overpass, Arial, Helvetica, sans-serif" font-size="12" text-anchor="end" fill="#3A3A3A">200</text>
<line x1="65" y1="255.0" x2="870" y2="255.0" stroke="#EEDEFF"/><text x="58" y="259.0" font-family="Overpass, Arial, Helvetica, sans-serif" font-size="12" text-anchor="end" fill="#3A3A3A">225</text>
<line x1="65" y1="243.9" x2="870" y2="243.9" stroke="#EEDEFF"/><text x="58" y="247.9" font-family="Overpass, Arial, Helvetica, sans-serif" font-size="12" text-anchor="end" fill="#3A3A3A">250</text>
<line x1="65" y1="232.8" x2="870" y2="232.8" stroke="#EEDEFF"/><text x="58" y="236.8" font-family="Overpass, Arial, Helvetica, sans-serif" font-size="12" text-anchor="end" fill="#3A3A3A">275</text>
<line x1="65" y1="221.7" x2="870" y2="221.7" stroke="#EEDEFF"/><text x="58" y="225.7" font-family="Overpass, Arial, Helvetica, sans-serif" font-size="12" text-anchor="end" fill="#3A3A3A">300</text>
<line x1="65" y1="210.6" x2="870" y2="210.6" stroke="#EEDEFF"/><text x="58" y="214.6" font-family="Overpass, Arial, Helvetica, sans-serif" font-size="12" text-anchor="end" fill="#3A3A3A">325</text>
<line x1="65" y1="199.4" x2="870" y2="199.4" stroke="#EEDEFF"/><text x="58" y="203.4" font-family="Overpass, Arial, Helvetica, sans-serif" font-size="12" text-anchor="end" fill="#3A3A3A">350</text>
<line x1="65" y1="188.3" x2="870" y2="188.3" stroke="#EEDEFF"/><text x="58" y="192.3" font-family="Overpass, Arial, Helvetica, sans-serif" font-size="12" text-anchor="end" fill="#3A3A3A">375</text>
<line x1="65" y1="177.2" x2="870" y2="177.2" stroke="#EEDEFF"/><text x="58" y="181.2" font-family="Overpass, Arial, Helvetica, sans-serif" font-size="12" text-anchor="end" fill="#3A3A3A">400</text>
<line x1="65" y1="166.1" x2="870" y2="166.1" stroke="#EEDEFF"/><text x="58" y="170.1" font-family="Overpass, Arial, Helvetica, sans-serif" font-size="12" text-anchor="end" fill="#3A3A3A">425</text>
<line x1="65" y1="155.0" x2="870" y2="155.0" stroke="#EEDEFF"/><text x="58" y="159.0" font-family="Overpass, Arial, Helvetica, sans-serif" font-size="12" text-anchor="end" fill="#3A3A3A">450</text>
<line x1="65" y1="143.9" x2="870" y2="143.9" stroke="#EEDEFF"/><text x="58" y="147.9" font-family="Overpass, Arial, Helvetica, sans-serif" font-size="12" text-anchor="end" fill="#3A3A3A">475</text>
<line x1="65" y1="132.8" x2="870" y2="132.8" stroke="#EEDEFF"/><text x="58" y="136.8" font-family="Overpass, Arial, Helvetica, sans-serif" font-size="12" text-anchor="end" fill="#3A3A3A">500</text>
<line x1="65" y1="121.7" x2="870" y2="121.7" stroke="#EEDEFF"/><text x="58" y="125.7" font-family="Overpass, Arial, Helvetica, sans-serif" font-size="12" text-anchor="end" fill="#3A3A3A">525</text>
<line x1="65" y1="110.6" x2="870" y2="110.6" stroke="#EEDEFF"/><text x="58" y="114.6" font-family="Overpass, Arial, Helvetica, sans-serif" font-size="12" text-anchor="end" fill="#3A3A3A">550</text>
<line x1="65" y1="99.4" x2="870" y2="99.4" stroke="#EEDEFF"/><text x="58" y="103.4" font-family="Overpass, Arial, Helvetica, sans-serif" font-size="12" text-anchor="end" fill="#3A3A3A">575</text>
<line x1="65" y1="88.3" x2="870" y2="88.3" stroke="#EEDEFF"/><text x="58" y="92.3" font-family="Overpass, Arial, Helvetica, sans-serif" font-size="12" text-anchor="end" fill="#3A3A3A">600</text>
<line x1="65" y1="77.2" x2="870" y2="77.2" stroke="#EEDEFF"/><text x="58" y="81.2" font-family="Overpass, Arial, Helvetica, sans-serif" font-size="12" text-anchor="end" fill="#3A3A3A">625</text>
<line x1="65" y1="66.1" x2="870" y2="66.1" stroke="#EEDEFF"/><text x="58" y="70.1" font-family="Overpass, Arial, Helvetica, sans-serif" font-size="12" text-anchor="end" fill="#3A3A3A">650</text>
<line x1="65" y1="55.0" x2="870" y2="55.0" stroke="#EEDEFF"/><text x="58" y="59.0" font-family="Overpass, Arial, Helvetica, sans-serif" font-size="12" text-anchor="end" fill="#3A3A3A">675</text>
<line x1="70.0" y1="355" x2="70.0" y2="360" stroke="#3A3A3A"/><text x="70.0" y="382" font-family="Overpass, Arial, Helvetica, sans-serif" font-size="12" text-anchor="middle" fill="#3A3A3A">27 Apr</text>
<line x1="162.6" y1="355" x2="162.6" y2="360" stroke="#3A3A3A"/><text x="162.6" y="382" font-family="Overpass, Arial, Helvetica, sans-serif" font-size="12" text-anchor="middle" fill="#3A3A3A">11 May</text>
<line x1="255.1" y1="355" x2="255.1" y2="360" stroke="#3A3A3A"/><text x="255.1" y="382" font-family="Overpass, Arial, Helvetica, sans-serif" font-size="12" text-anchor="middle" fill="#3A3A3A">25 May</text>
<line x1="347.7" y1="355" x2="347.7" y2="360" stroke="#3A3A3A"/><text x="347.7" y="382" font-family="Overpass, Arial, Helvetica, sans-serif" font-size="12" text-anchor="middle" fill="#3A3A3A">8 Jun</text>
<line x1="440.2" y1="355" x2="440.2" y2="360" stroke="#3A3A3A"/><text x="440.2" y="382" font-family="Overpass, Arial, Helvetica, sans-serif" font-size="12" text-anchor="middle" fill="#3A3A3A">22 Jun</text>
<line x1="532.8" y1="355" x2="532.8" y2="360" stroke="#3A3A3A"/><text x="532.8" y="382" font-family="Overpass, Arial, Helvetica, sans-serif" font-size="12" text-anchor="middle" fill="#3A3A3A">6 Jul</text>
<line x1="625.4" y1="355" x2="625.4" y2="360" stroke="#3A3A3A"/><text x="625.4" y="382" font-family="Overpass, Arial, Helvetica, sans-serif" font-size="12" text-anchor="middle" fill="#3A3A3A">20 Jul</text>
<line x1="717.9" y1="355" x2="717.9" y2="360" stroke="#3A3A3A"/><text x="717.9" y="382" font-family="Overpass, Arial, Helvetica, sans-serif" font-size="12" text-anchor="middle" fill="#3A3A3A">3 Aug</text>
<line x1="810.5" y1="355" x2="810.5" y2="360" stroke="#3A3A3A"/><text x="810.5" y="382" font-family="Overpass, Arial, Helvetica, sans-serif" font-size="12" text-anchor="middle" fill="#3A3A3A">17 Aug</text>
<line x1="870.0" y1="355" x2="870.0" y2="360" stroke="#3A3A3A"/><text x="870.0" y="382" font-family="Overpass, Arial, Helvetica, sans-serif" font-size="12" text-anchor="middle" fill="#3A3A3A">26 Aug</text>
<line x1="70" y1="55" x2="70" y2="355" stroke="#3A3A3A"/>
<line x1="70" y1="355" x2="870" y2="355" stroke="#3A3A3A"/>
<text x="18" y="205.0" font-family="Overpass, Arial, Helvetica, sans-serif" font-size="13" text-anchor="middle" transform="rotate(-90 18 205.0)" fill="#3A3A3A">Story Points Remaining</text>
<text x="470.0" y="408" font-family="Overpass, Arial, Helvetica, sans-serif" font-size="13" text-anchor="middle" fill="#3A3A3A">Sprint Timeline</text>
<polyline points="70.0,62.6 76.6,64.9 83.2,67.2 89.8,69.5 96.4,71.8 103.1,74.2 109.7,76.5 116.3,78.8 122.9,81.1 129.5,83.4 136.1,85.8 142.7,88.1 149.3,90.4 156.0,92.7 162.6,95.0 169.2,97.4 175.8,99.7 182.4,102.0 189.0,104.3 195.6,106.7 202.2,109.0 208.8,111.3 215.5,113.6 222.1,115.9 228.7,118.3 235.3,120.6 241.9,122.9 248.5,125.2 255.1,127.5 261.7,129.9 268.3,132.2 275.0,134.5 281.6,136.8 288.2,139.1 294.8,141.5 301.4,143.8 308.0,146.1 314.6,148.4 321.2,150.8 327.9,153.1 334.5,155.4 341.1,157.7 347.7,160.0 354.3,162.4 360.9,164.7 367.5,167.0 374.1,169.3 380.7,171.6 387.4,174.0 394.0,176.3 400.6,178.6 407.2,180.9 413.8,183.2 420.4,185.6 427.0,187.9 433.6,190.2 440.2,192.5 446.9,194.9 453.5,197.2 460.1,199.5 466.7,201.8 473.3,204.1 479.9,206.5 486.5,208.8 493.1,211.1 499.8,213.4 506.4,215.7 513.0,218.1 519.6,220.4 526.2,222.7 532.8,225.0 539.4,227.3 546.0,229.7 552.6,232.0 559.3,234.3 565.9,236.6 572.5,239.0 579.1,241.3 585.7,243.6 592.3,245.9 598.9,248.2 605.5,250.6 612.1,252.9 618.8,255.2 625.4,257.5 632.0,259.8 638.6,262.2 645.2,264.5 651.8,266.8 658.4,269.1 665.0,271.4 671.7,273.8 678.3,276.1 684.9,278.4 691.5,280.7 698.1,283.0 704.7,285.4 711.3,287.7 717.9,290.0 724.5,292.3 731.2,294.7 737.8,297.0 744.4,299.3 751.0,301.6 757.6,303.9 764.2,306.3 770.8,308.6 777.4,310.9 784.0,313.2 790.7,315.5 797.3,317.9 803.9,320.2 810.5,322.5 817.1,324.8 823.7,327.1 830.3,329.5 836.9,331.8 843.6,334.1 850.2,336.4 856.8,338.8 863.4,341.1 870.0,343.4" fill="none" stroke="#B37DFF" stroke-width="3" stroke-dasharray="8 6"/>
<polyline points="70.0,62.6 76.6,63.9 83.2,63.9 89.8,68.8 96.4,71.0 103.1,71.0 109.7,73.7 116.3,73.7 122.9,74.1 129.5,74.1 136.1,75.4 142.7,81.7 149.3,88.8 156.0,101.2 162.6,105.2 169.2,110.6 175.8,112.8 182.4,112.8 189.0,113.2 195.6,115.4 202.2,117.7 208.8,127.0 215.5,134.1 222.1,139.0 228.7,149.7 235.3,149.7 241.9,149.7 248.5,149.7 255.1,149.7 261.7,150.6 268.3,150.6 275.0,150.6 281.6,151.9 288.2,151.9 294.8,151.9 301.4,151.9 308.0,151.9 314.6,153.2 321.2,153.2 327.9,153.2 334.5,153.2 341.1,153.2 347.7,153.2 354.3,153.2 360.9,153.2 367.5,153.2 374.1,153.2 380.7,153.2 387.4,153.2 394.0,153.2 400.6,162.6 407.2,175.9 413.8,183.9 420.4,184.8 427.0,184.8 433.6,184.8 440.2,185.7 446.9,191.0 453.5,191.9 460.1,193.7 466.7,194.6 473.3,194.6 479.9,195.9 486.5,199.4 493.1,204.3 499.8,210.6 506.4,213.7 513.0,214.6 519.6,214.6 526.2,214.6 532.8,219.0 539.4,219.9 546.0,221.7 552.6,221.7 559.3,221.7 565.9,221.7 572.5,221.7 579.1,224.3 585.7,225.2 592.3,226.1 598.9,227.0 605.5,227.0 612.1,227.0 618.8,229.2 625.4,235.0 632.0,236.8 638.6,238.6 645.2,240.8 651.8,242.6 658.4,244.3 665.0,250.6 671.7,257.2 678.3,259.0 684.9,271.9 691.5,279.9 698.1,290.6 704.7,290.6 711.3,290.6 717.9,290.6 724.5,290.6 731.2,290.6 737.8,290.6 744.4,291.9 751.0,294.1 757.6,296.3 764.2,298.6 770.8,302.1 777.4,302.1 784.0,302.1 790.7,304.3 797.3,307.9 803.9,321.2 810.5,323.4 817.1,323.4 823.7,327.0 830.3,327.9 836.9,327.9 843.6,327.9 850.2,327.9 856.8,330.1 863.4,330.1 870.0,330.1" fill="none" stroke="#8400FF" stroke-width="4"/>
<line x1="610" y1="75" x2="645" y2="75" stroke="#8400FF" stroke-width="4"/>
<text x="655" y="80" font-family="Overpass, Arial, Helvetica, sans-serif" font-size="13" fill="#3A3A3A">Remaining work</text>
<line x1="610" y1="97" x2="645" y2="97" stroke="#B37DFF" stroke-width="3" stroke-dasharray="8 6"/>
<text x="655" y="102" font-family="Overpass, Arial, Helvetica, sans-serif" font-size="13" fill="#3A3A3A">Ideal burndown</text>
</svg>
