<svg xmlns="http://www.w3.org/2000/svg" width="900" height="420" viewBox="0 0 900 420" role="img" aria-labelledby="title desc">
<title id="title">Project Burndown</title>
<desc id="desc">Burndown chart showing remaining story points and ideal remaining story points over time.</desc>
<rect width="100%" height="100%" fill="#ffffff"/>
<text x="70" y="32" font-family="Jost, Arial, Helvetica, sans-serif" font-size="22" font-weight="700" fill="#3A3A3A">Project Burndown</text>
<line x1="65" y1="355.0" x2="870" y2="355.0" stroke="#EEDEFF"/><text x="58" y="359.0" font-family="Overpass, Arial, Helvetica, sans-serif" font-size="12" text-anchor="end" fill="#3A3A3A">0</text>
<line x1="65" y1="327.7" x2="870" y2="327.7" stroke="#EEDEFF"/><text x="58" y="331.7" font-family="Overpass, Arial, Helvetica, sans-serif" font-size="12" text-anchor="end" fill="#3A3A3A">25</text>
<line x1="65" y1="300.5" x2="870" y2="300.5" stroke="#EEDEFF"/><text x="58" y="304.5" font-family="Overpass, Arial, Helvetica, sans-serif" font-size="12" text-anchor="end" fill="#3A3A3A">50</text>
<line x1="65" y1="273.2" x2="870" y2="273.2" stroke="#EEDEFF"/><text x="58" y="277.2" font-family="Overpass, Arial, Helvetica, sans-serif" font-size="12" text-anchor="end" fill="#3A3A3A">75</text>
<line x1="65" y1="245.9" x2="870" y2="245.9" stroke="#EEDEFF"/><text x="58" y="249.9" font-family="Overpass, Arial, Helvetica, sans-serif" font-size="12" text-anchor="end" fill="#3A3A3A">100</text>
<line x1="65" y1="218.6" x2="870" y2="218.6" stroke="#EEDEFF"/><text x="58" y="222.6" font-family="Overpass, Arial, Helvetica, sans-serif" font-size="12" text-anchor="end" fill="#3A3A3A">125</text>
<line x1="65" y1="191.4" x2="870" y2="191.4" stroke="#EEDEFF"/><text x="58" y="195.4" font-family="Overpass, Arial, Helvetica, sans-serif" font-size="12" text-anchor="end" fill="#3A3A3A">150</text>
<line x1="65" y1="164.1" x2="870" y2="164.1" stroke="#EEDEFF"/><text x="58" y="168.1" font-family="Overpass, Arial, Helvetica, sans-serif" font-size="12" text-anchor="end" fill="#3A3A3A">175</text>
<line x1="65" y1="136.8" x2="870" y2="136.8" stroke="#EEDEFF"/><text x="58" y="140.8" font-family="Overpass, Arial, Helvetica, sans-serif" font-size="12" text-anchor="end" fill="#3A3A3A">200</text>
<line x1="65" y1="109.5" x2="870" y2="109.5" stroke="#EEDEFF"/><text x="58" y="113.5" font-family="Overpass, Arial, Helvetica, sans-serif" font-size="12" text-anchor="end" fill="#3A3A3A">225</text>
<line x1="65" y1="82.3" x2="870" y2="82.3" stroke="#EEDEFF"/><text x="58" y="86.3" font-family="Overpass, Arial, Helvetica, sans-serif" font-size="12" text-anchor="end" fill="#3A3A3A">250</text>
<line x1="65" y1="55.0" x2="870" y2="55.0" stroke="#EEDEFF"/><text x="58" y="59.0" font-family="Overpass, Arial, Helvetica, sans-serif" font-size="12" text-anchor="end" fill="#3A3A3A">275</text>
<line x1="70.0" y1="355" x2="70.0" y2="360" stroke="#3A3A3A"/><text x="70.0" y="382" font-family="Overpass, Arial, Helvetica, sans-serif" font-size="12" text-anchor="middle" fill="#3A3A3A">27 Apr</text>
<line x1="197.3" y1="355" x2="197.3" y2="360" stroke="#3A3A3A"/><text x="197.3" y="382" font-family="Overpass, Arial, Helvetica, sans-serif" font-size="12" text-anchor="middle" fill="#3A3A3A">4 May</text>
<line x1="324.5" y1="355" x2="324.5" y2="360" stroke="#3A3A3A"/><text x="324.5" y="382" font-family="Overpass, Arial, Helvetica, sans-serif" font-size="12" text-anchor="middle" fill="#3A3A3A">11 May</text>
<line x1="451.8" y1="355" x2="451.8" y2="360" stroke="#3A3A3A"/><text x="451.8" y="382" font-family="Overpass, Arial, Helvetica, sans-serif" font-size="12" text-anchor="middle" fill="#3A3A3A">18 May</text>
<line x1="579.1" y1="355" x2="579.1" y2="360" stroke="#3A3A3A"/><text x="579.1" y="382" font-family="Overpass, Arial, Helvetica, sans-serif" font-size="12" text-anchor="middle" fill="#3A3A3A">25 May</text>
<line x1="706.4" y1="355" x2="706.4" y2="360" stroke="#3A3A3A"/><text x="706.4" y="382" font-family="Overpass, Arial, Helvetica, sans-serif" font-size="12" text-anchor="middle" fill="#3A3A3A">1 Jun</text>
<line x1="833.6" y1="355" x2="833.6" y2="360" stroke="#3A3A3A"/><text x="833.6" y="382" font-family="Overpass, Arial, Helvetica, sans-serif" font-size="12" text-anchor="middle" fill="#3A3A3A">8 Jun</text>
<line x1="870.0" y1="355" x2="870.0" y2="360" stroke="#3A3A3A"/><text x="870.0" y="382" font-family="Overpass, Arial, Helvetica, sans-serif" font-size="12" text-anchor="middle" fill="#3A3A3A">10 Jun</text>
<line x1="70" y1="55" x2="70" y2="355" stroke="#3A3A3A"/>
<line x1="70" y1="355" x2="870" y2="355" stroke="#3A3A3A"/>
<text x="18" y="205.0" font-family="Overpass, Arial, Helvetica, sans-serif" font-size="13" text-anchor="middle" transform="rotate(-90 18 205.0)" fill="#3A3A3A">Story Points Remaining</text>
<text x="470.0" y="408" font-family="Overpass, Arial, Helvetica, sans-serif" font-size="13" text-anchor="middle" fill="#3A3A3A">Sprint Timeline</text>
<polyline points="70.0,56.1 88.2,62.2 106.4,68.3 124.5,74.4 142.7,80.5 160.9,86.6 179.1,92.7 197.3,98.8 215.5,104.9 233.6,111.0 251.8,117.1 270.0,123.2 288.2,129.3 306.4,135.4 324.5,141.5 342.7,147.6 360.9,153.7 379.1,159.8 397.3,165.9 415.5,172.0 433.6,178.1 451.8,184.2 470.0,190.3 488.2,196.4 506.4,202.5 524.5,208.6 542.7,214.7 560.9,220.8 579.1,226.9 597.3,233.0 615.5,239.1 633.6,245.2 651.8,251.3 670.0,257.4 688.2,263.5 706.4,269.6 724.5,275.7 742.7,281.8 760.9,287.9 779.1,294.0 797.3,300.1 815.5,306.2 833.6,312.3 851.8,318.4 870.0,324.5" fill="none" stroke="#B37DFF" stroke-width="3" stroke-dasharray="8 6"/>
<polyline points="70.0,56.1 88.2,59.4 106.4,59.4 124.5,71.4 142.7,76.8 160.9,76.8 179.1,83.4 197.3,83.4 215.5,84.5 233.6,84.5 251.8,87.7 270.0,103.0 288.2,120.5 306.4,151.0 324.5,160.8 342.7,173.9 360.9,179.4 379.1,179.4 397.3,180.5 415.5,185.9 433.6,191.4 451.8,214.3 470.0,231.7 488.2,243.7 506.4,269.9 524.5,269.9 542.7,269.9 560.9,269.9 579.1,269.9 597.3,272.1 615.5,272.1 633.6,272.1 651.8,275.4 670.0,275.4 688.2,275.4 706.4,275.4 724.5,275.4 742.7,278.6 760.9,278.6 779.1,278.6 797.3,278.6 815.5,278.6 833.6,278.6 851.8,278.6 870.0,278.6" fill="none" stroke="#8400FF" stroke-width="4"/>
<line x1="610" y1="75" x2="645" y2="75" stroke="#8400FF" stroke-width="4"/>
<text x="655" y="80" font-family="Overpass, Arial, Helvetica, sans-serif" font-size="13" fill="#3A3A3A">Remaining work</text>
<line x1="610" y1="97" x2="645" y2="97" stroke="#B37DFF" stroke-width="3" stroke-dasharray="8 6"/>
<text x="655" y="102" font-family="Overpass, Arial, Helvetica, sans-serif" font-size="13" fill="#3A3A3A">Ideal burndown</text>
</svg>
