<svg xmlns="http://www.w3.org/2000/svg" width="900" height="420" viewBox="0 0 900 420" role="img" aria-labelledby="title desc">
<title id="title">Project Burndown</title>
<desc id="desc">Burndown chart showing remaining story points and ideal remaining story points over time.</desc>
<rect width="100%" height="100%" fill="#ffffff"/>
<text x="70" y="32" font-family="Jost, Arial, Helvetica, sans-serif" font-size="22" font-weight="700" fill="#3A3A3A">Project Burndown</text>
<line x1="65" y1="355.0" x2="870" y2="355.0" stroke="#EEDEFF"/><text x="58" y="359.0" font-family="Overpass, Arial, Helvetica, sans-serif" font-size="12" text-anchor="end" fill="#3A3A3A">0</text>
<line x1="65" y1="340.7" x2="870" y2="340.7" stroke="#EEDEFF"/><text x="58" y="344.7" font-family="Overpass, Arial, Helvetica, sans-serif" font-size="12" text-anchor="end" fill="#3A3A3A">25</text>
<line x1="65" y1="326.4" x2="870" y2="326.4" stroke="#EEDEFF"/><text x="58" y="330.4" font-family="Overpass, Arial, Helvetica, sans-serif" font-size="12" text-anchor="end" fill="#3A3A3A">50</text>
<line x1="65" y1="312.1" x2="870" y2="312.1" stroke="#EEDEFF"/><text x="58" y="316.1" font-family="Overpass, Arial, Helvetica, sans-serif" font-size="12" text-anchor="end" fill="#3A3A3A">75</text>
<line x1="65" y1="297.9" x2="870" y2="297.9" stroke="#EEDEFF"/><text x="58" y="301.9" font-family="Overpass, Arial, Helvetica, sans-serif" font-size="12" text-anchor="end" fill="#3A3A3A">100</text>
<line x1="65" y1="283.6" x2="870" y2="283.6" stroke="#EEDEFF"/><text x="58" y="287.6" font-family="Overpass, Arial, Helvetica, sans-serif" font-size="12" text-anchor="end" fill="#3A3A3A">125</text>
<line x1="65" y1="269.3" x2="870" y2="269.3" stroke="#EEDEFF"/><text x="58" y="273.3" font-family="Overpass, Arial, Helvetica, sans-serif" font-size="12" text-anchor="end" fill="#3A3A3A">150</text>
<line x1="65" y1="255.0" x2="870" y2="255.0" stroke="#EEDEFF"/><text x="58" y="259.0" font-family="Overpass, Arial, Helvetica, sans-serif" font-size="12" text-anchor="end" fill="#3A3A3A">175</text>
<line x1="65" y1="240.7" x2="870" y2="240.7" stroke="#EEDEFF"/><text x="58" y="244.7" font-family="Overpass, Arial, Helvetica, sans-serif" font-size="12" text-anchor="end" fill="#3A3A3A">200</text>
<line x1="65" y1="226.4" x2="870" y2="226.4" stroke="#EEDEFF"/><text x="58" y="230.4" font-family="Overpass, Arial, Helvetica, sans-serif" font-size="12" text-anchor="end" fill="#3A3A3A">225</text>
<line x1="65" y1="212.1" x2="870" y2="212.1" stroke="#EEDEFF"/><text x="58" y="216.1" font-family="Overpass, Arial, Helvetica, sans-serif" font-size="12" text-anchor="end" fill="#3A3A3A">250</text>
<line x1="65" y1="197.9" x2="870" y2="197.9" stroke="#EEDEFF"/><text x="58" y="201.9" font-family="Overpass, Arial, Helvetica, sans-serif" font-size="12" text-anchor="end" fill="#3A3A3A">275</text>
<line x1="65" y1="183.6" x2="870" y2="183.6" stroke="#EEDEFF"/><text x="58" y="187.6" font-family="Overpass, Arial, Helvetica, sans-serif" font-size="12" text-anchor="end" fill="#3A3A3A">300</text>
<line x1="65" y1="169.3" x2="870" y2="169.3" stroke="#EEDEFF"/><text x="58" y="173.3" font-family="Overpass, Arial, Helvetica, sans-serif" font-size="12" text-anchor="end" fill="#3A3A3A">325</text>
<line x1="65" y1="155.0" x2="870" y2="155.0" stroke="#EEDEFF"/><text x="58" y="159.0" font-family="Overpass, Arial, Helvetica, sans-serif" font-size="12" text-anchor="end" fill="#3A3A3A">350</text>
<line x1="65" y1="140.7" x2="870" y2="140.7" stroke="#EEDEFF"/><text x="58" y="144.7" font-family="Overpass, Arial, Helvetica, sans-serif" font-size="12" text-anchor="end" fill="#3A3A3A">375</text>
<line x1="65" y1="126.4" x2="870" y2="126.4" stroke="#EEDEFF"/><text x="58" y="130.4" font-family="Overpass, Arial, Helvetica, sans-serif" font-size="12" text-anchor="end" fill="#3A3A3A">400</text>
<line x1="65" y1="112.1" x2="870" y2="112.1" stroke="#EEDEFF"/><text x="58" y="116.1" font-family="Overpass, Arial, Helvetica, sans-serif" font-size="12" text-anchor="end" fill="#3A3A3A">425</text>
<line x1="65" y1="97.9" x2="870" y2="97.9" stroke="#EEDEFF"/><text x="58" y="101.9" font-family="Overpass, Arial, Helvetica, sans-serif" font-size="12" text-anchor="end" fill="#3A3A3A">450</text>
<line x1="65" y1="83.6" x2="870" y2="83.6" stroke="#EEDEFF"/><text x="58" y="87.6" font-family="Overpass, Arial, Helvetica, sans-serif" font-size="12" text-anchor="end" fill="#3A3A3A">475</text>
<line x1="65" y1="69.3" x2="870" y2="69.3" stroke="#EEDEFF"/><text x="58" y="73.3" font-family="Overpass, Arial, Helvetica, sans-serif" font-size="12" text-anchor="end" fill="#3A3A3A">500</text>
<line x1="65" y1="55.0" x2="870" y2="55.0" stroke="#EEDEFF"/><text x="58" y="59.0" font-family="Overpass, Arial, Helvetica, sans-serif" font-size="12" text-anchor="end" fill="#3A3A3A">525</text>
<line x1="70.0" y1="355" x2="70.0" y2="360" stroke="#3A3A3A"/><text x="70.0" y="382" font-family="Overpass, Arial, Helvetica, sans-serif" font-size="12" text-anchor="middle" fill="#3A3A3A">27 Apr</text>
<line x1="189.1" y1="355" x2="189.1" y2="360" stroke="#3A3A3A"/><text x="189.1" y="382" font-family="Overpass, Arial, Helvetica, sans-serif" font-size="12" text-anchor="middle" fill="#3A3A3A">11 May</text>
<line x1="308.3" y1="355" x2="308.3" y2="360" stroke="#3A3A3A"/><text x="308.3" y="382" font-family="Overpass, Arial, Helvetica, sans-serif" font-size="12" text-anchor="middle" fill="#3A3A3A">25 May</text>
<line x1="427.4" y1="355" x2="427.4" y2="360" stroke="#3A3A3A"/><text x="427.4" y="382" font-family="Overpass, Arial, Helvetica, sans-serif" font-size="12" text-anchor="middle" fill="#3A3A3A">8 Jun</text>
<line x1="546.6" y1="355" x2="546.6" y2="360" stroke="#3A3A3A"/><text x="546.6" y="382" font-family="Overpass, Arial, Helvetica, sans-serif" font-size="12" text-anchor="middle" fill="#3A3A3A">22 Jun</text>
<line x1="665.7" y1="355" x2="665.7" y2="360" stroke="#3A3A3A"/><text x="665.7" y="382" font-family="Overpass, Arial, Helvetica, sans-serif" font-size="12" text-anchor="middle" fill="#3A3A3A">6 Jul</text>
<line x1="784.9" y1="355" x2="784.9" y2="360" stroke="#3A3A3A"/><text x="784.9" y="382" font-family="Overpass, Arial, Helvetica, sans-serif" font-size="12" text-anchor="middle" fill="#3A3A3A">20 Jul</text>
<line x1="870.0" y1="355" x2="870.0" y2="360" stroke="#3A3A3A"/><text x="870.0" y="382" font-family="Overpass, Arial, Helvetica, sans-serif" font-size="12" text-anchor="middle" fill="#3A3A3A">30 Jul</text>
<line x1="70" y1="55" x2="70" y2="355" stroke="#3A3A3A"/>
<line x1="70" y1="355" x2="870" y2="355" stroke="#3A3A3A"/>
<text x="18" y="205.0" font-family="Overpass, Arial, Helvetica, sans-serif" font-size="13" text-anchor="middle" transform="rotate(-90 18 205.0)" fill="#3A3A3A">Story Points Remaining</text>
<text x="470.0" y="408" font-family="Overpass, Arial, Helvetica, sans-serif" font-size="13" text-anchor="middle" fill="#3A3A3A">Sprint Timeline</text>
<polyline points="70.0,61.9 78.5,65.0 87.0,68.1 95.5,71.2 104.0,74.3 112.6,77.5 121.1,80.6 129.6,83.7 138.1,86.8 146.6,89.9 155.1,93.0 163.6,96.2 172.1,99.3 180.6,102.4 189.1,105.5 197.7,108.6 206.2,111.8 214.7,114.9 223.2,118.0 231.7,121.1 240.2,124.2 248.7,127.3 257.2,130.5 265.7,133.6 274.3,136.7 282.8,139.8 291.3,142.9 299.8,146.1 308.3,149.2 316.8,152.3 325.3,155.4 333.8,158.5 342.3,161.7 350.9,164.8 359.4,167.9 367.9,171.0 376.4,174.1 384.9,177.2 393.4,180.4 401.9,183.5 410.4,186.6 418.9,189.7 427.4,192.8 436.0,196.0 444.5,199.1 453.0,202.2 461.5,205.3 470.0,208.4 478.5,211.5 487.0,214.7 495.5,217.8 504.0,220.9 512.6,224.0 521.1,227.1 529.6,230.3 538.1,233.4 546.6,236.5 555.1,239.6 563.6,242.7 572.1,245.9 580.6,249.0 589.1,252.1 597.7,255.2 606.2,258.3 614.7,261.4 623.2,264.6 631.7,267.7 640.2,270.8 648.7,273.9 657.2,277.0 665.7,280.2 674.3,283.3 682.8,286.4 691.3,289.5 699.8,292.6 708.3,295.7 716.8,298.9 725.3,302.0 733.8,305.1 742.3,308.2 750.9,311.3 759.4,314.5 767.9,317.6 776.4,320.7 784.9,323.8 793.4,326.9 801.9,330.1 810.4,333.2 818.9,336.3 827.4,339.4 836.0,342.5 844.5,345.6 853.0,348.8 861.5,351.9 870.0,355.0" fill="none" stroke="#B37DFF" stroke-width="3" stroke-dasharray="8 6"/>
<polyline points="70.0,61.9 78.5,63.6 87.0,63.6 95.5,69.9 104.0,72.7 112.6,72.7 121.1,76.1 129.6,76.1 138.1,76.7 146.6,76.7 155.1,78.4 163.6,86.4 172.1,95.6 180.6,111.6 189.1,116.7 197.7,123.6 206.2,126.4 214.7,126.4 223.2,127.0 231.7,129.9 240.2,132.7 248.7,144.7 257.2,153.9 265.7,160.1 274.3,173.9 282.8,173.9 291.3,173.9 299.8,173.9 308.3,173.9 316.8,175.0 325.3,175.0 333.8,175.0 342.3,176.7 350.9,176.7 359.4,176.7 367.9,176.7 376.4,176.7 384.9,178.4 393.4,178.4 401.9,178.4 410.4,178.4 418.9,178.4 427.4,178.4 436.0,178.4 444.5,178.4 453.0,178.4 461.5,178.4 470.0,178.4 478.5,178.4 487.0,178.4 495.5,190.4 504.0,207.6 512.6,217.9 521.1,219.0 529.6,219.0 538.1,219.0 546.6,220.1 555.1,227.0 563.6,228.1 572.1,230.4 580.6,231.6 589.1,231.6 597.7,233.3 606.2,237.9 614.7,244.1 623.2,252.1 631.7,256.1 640.2,257.3 648.7,257.3 657.2,257.3 665.7,263.0 674.3,264.1 682.8,266.4 691.3,266.4 699.8,266.4 708.3,266.4 716.8,266.4 725.3,269.9 733.8,271.0 742.3,272.1 750.9,273.3 759.4,273.3 767.9,273.3 776.4,276.1 784.9,283.6 793.4,285.9 801.9,288.1 810.4,291.0 818.9,293.3 827.4,295.6 836.0,303.6 844.5,312.1 853.0,314.4 861.5,331.0 870.0,333.3" fill="none" stroke="#8400FF" stroke-width="4"/>
<line x1="610" y1="75" x2="645" y2="75" stroke="#8400FF" stroke-width="4"/>
<text x="655" y="80" font-family="Overpass, Arial, Helvetica, sans-serif" font-size="13" fill="#3A3A3A">Remaining work</text>
<line x1="610" y1="97" x2="645" y2="97" stroke="#B37DFF" stroke-width="3" stroke-dasharray="8 6"/>
<text x="655" y="102" font-family="Overpass, Arial, Helvetica, sans-serif" font-size="13" fill="#3A3A3A">Ideal burndown</text>
</svg>
