<svg xmlns="http://www.w3.org/2000/svg" width="900" height="420" viewBox="0 0 900 420" role="img" aria-labelledby="title desc">
<title id="title">Project Burndown</title>
<desc id="desc">Burndown chart showing remaining story points and ideal remaining story points over time.</desc>
<rect width="100%" height="100%" fill="#090054"/>
<text x="70" y="32" font-family="Jost, Arial, Helvetica, sans-serif" font-size="22" font-weight="700" fill="#EEDEFF">Project Burndown</text>
<line x1="65" y1="355.0" x2="870" y2="355.0" stroke="#3A3A3A"/><text x="58" y="359.0" font-family="Overpass, Arial, Helvetica, sans-serif" font-size="12" text-anchor="end" fill="#EEDEFF">0</text>
<line x1="65" y1="342.5" x2="870" y2="342.5" stroke="#3A3A3A"/><text x="58" y="346.5" font-family="Overpass, Arial, Helvetica, sans-serif" font-size="12" text-anchor="end" fill="#EEDEFF">25</text>
<line x1="65" y1="330.0" x2="870" y2="330.0" stroke="#3A3A3A"/><text x="58" y="334.0" font-family="Overpass, Arial, Helvetica, sans-serif" font-size="12" text-anchor="end" fill="#EEDEFF">50</text>
<line x1="65" y1="317.5" x2="870" y2="317.5" stroke="#3A3A3A"/><text x="58" y="321.5" font-family="Overpass, Arial, Helvetica, sans-serif" font-size="12" text-anchor="end" fill="#EEDEFF">75</text>
<line x1="65" y1="305.0" x2="870" y2="305.0" stroke="#3A3A3A"/><text x="58" y="309.0" font-family="Overpass, Arial, Helvetica, sans-serif" font-size="12" text-anchor="end" fill="#EEDEFF">100</text>
<line x1="65" y1="292.5" x2="870" y2="292.5" stroke="#3A3A3A"/><text x="58" y="296.5" font-family="Overpass, Arial, Helvetica, sans-serif" font-size="12" text-anchor="end" fill="#EEDEFF">125</text>
<line x1="65" y1="280.0" x2="870" y2="280.0" stroke="#3A3A3A"/><text x="58" y="284.0" font-family="Overpass, Arial, Helvetica, sans-serif" font-size="12" text-anchor="end" fill="#EEDEFF">150</text>
<line x1="65" y1="267.5" x2="870" y2="267.5" stroke="#3A3A3A"/><text x="58" y="271.5" font-family="Overpass, Arial, Helvetica, sans-serif" font-size="12" text-anchor="end" fill="#EEDEFF">175</text>
<line x1="65" y1="255.0" x2="870" y2="255.0" stroke="#3A3A3A"/><text x="58" y="259.0" font-family="Overpass, Arial, Helvetica, sans-serif" font-size="12" text-anchor="end" fill="#EEDEFF">200</text>
<line x1="65" y1="242.5" x2="870" y2="242.5" stroke="#3A3A3A"/><text x="58" y="246.5" font-family="Overpass, Arial, Helvetica, sans-serif" font-size="12" text-anchor="end" fill="#EEDEFF">225</text>
<line x1="65" y1="230.0" x2="870" y2="230.0" stroke="#3A3A3A"/><text x="58" y="234.0" font-family="Overpass, Arial, Helvetica, sans-serif" font-size="12" text-anchor="end" fill="#EEDEFF">250</text>
<line x1="65" y1="217.5" x2="870" y2="217.5" stroke="#3A3A3A"/><text x="58" y="221.5" font-family="Overpass, Arial, Helvetica, sans-serif" font-size="12" text-anchor="end" fill="#EEDEFF">275</text>
<line x1="65" y1="205.0" x2="870" y2="205.0" stroke="#3A3A3A"/><text x="58" y="209.0" font-family="Overpass, Arial, Helvetica, sans-serif" font-size="12" text-anchor="end" fill="#EEDEFF">300</text>
<line x1="65" y1="192.5" x2="870" y2="192.5" stroke="#3A3A3A"/><text x="58" y="196.5" font-family="Overpass, Arial, Helvetica, sans-serif" font-size="12" text-anchor="end" fill="#EEDEFF">325</text>
<line x1="65" y1="180.0" x2="870" y2="180.0" stroke="#3A3A3A"/><text x="58" y="184.0" font-family="Overpass, Arial, Helvetica, sans-serif" font-size="12" text-anchor="end" fill="#EEDEFF">350</text>
<line x1="65" y1="167.5" x2="870" y2="167.5" stroke="#3A3A3A"/><text x="58" y="171.5" font-family="Overpass, Arial, Helvetica, sans-serif" font-size="12" text-anchor="end" fill="#EEDEFF">375</text>
<line x1="65" y1="155.0" x2="870" y2="155.0" stroke="#3A3A3A"/><text x="58" y="159.0" font-family="Overpass, Arial, Helvetica, sans-serif" font-size="12" text-anchor="end" fill="#EEDEFF">400</text>
<line x1="65" y1="142.5" x2="870" y2="142.5" stroke="#3A3A3A"/><text x="58" y="146.5" font-family="Overpass, Arial, Helvetica, sans-serif" font-size="12" text-anchor="end" fill="#EEDEFF">425</text>
<line x1="65" y1="130.0" x2="870" y2="130.0" stroke="#3A3A3A"/><text x="58" y="134.0" font-family="Overpass, Arial, Helvetica, sans-serif" font-size="12" text-anchor="end" fill="#EEDEFF">450</text>
<line x1="65" y1="117.5" x2="870" y2="117.5" stroke="#3A3A3A"/><text x="58" y="121.5" font-family="Overpass, Arial, Helvetica, sans-serif" font-size="12" text-anchor="end" fill="#EEDEFF">475</text>
<line x1="65" y1="105.0" x2="870" y2="105.0" stroke="#3A3A3A"/><text x="58" y="109.0" font-family="Overpass, Arial, Helvetica, sans-serif" font-size="12" text-anchor="end" fill="#EEDEFF">500</text>
<line x1="65" y1="92.5" x2="870" y2="92.5" stroke="#3A3A3A"/><text x="58" y="96.5" font-family="Overpass, Arial, Helvetica, sans-serif" font-size="12" text-anchor="end" fill="#EEDEFF">525</text>
<line x1="65" y1="80.0" x2="870" y2="80.0" stroke="#3A3A3A"/><text x="58" y="84.0" font-family="Overpass, Arial, Helvetica, sans-serif" font-size="12" text-anchor="end" fill="#EEDEFF">550</text>
<line x1="65" y1="67.5" x2="870" y2="67.5" stroke="#3A3A3A"/><text x="58" y="71.5" font-family="Overpass, Arial, Helvetica, sans-serif" font-size="12" text-anchor="end" fill="#EEDEFF">575</text>
<line x1="65" y1="55.0" x2="870" y2="55.0" stroke="#3A3A3A"/><text x="58" y="59.0" font-family="Overpass, Arial, Helvetica, sans-serif" font-size="12" text-anchor="end" fill="#EEDEFF">600</text>
<line x1="70.0" y1="355" x2="70.0" y2="360" stroke="#EEDEFF"/><text x="70.0" y="382" font-family="Overpass, Arial, Helvetica, sans-serif" font-size="12" text-anchor="middle" fill="#EEDEFF">27 Apr</text>
<line x1="175.7" y1="355" x2="175.7" y2="360" stroke="#EEDEFF"/><text x="175.7" y="382" font-family="Overpass, Arial, Helvetica, sans-serif" font-size="12" text-anchor="middle" fill="#EEDEFF">11 May</text>
<line x1="281.3" y1="355" x2="281.3" y2="360" stroke="#EEDEFF"/><text x="281.3" y="382" font-family="Overpass, Arial, Helvetica, sans-serif" font-size="12" text-anchor="middle" fill="#EEDEFF">25 May</text>
<line x1="387.0" y1="355" x2="387.0" y2="360" stroke="#EEDEFF"/><text x="387.0" y="382" font-family="Overpass, Arial, Helvetica, sans-serif" font-size="12" text-anchor="middle" fill="#EEDEFF">8 Jun</text>
<line x1="492.6" y1="355" x2="492.6" y2="360" stroke="#EEDEFF"/><text x="492.6" y="382" font-family="Overpass, Arial, Helvetica, sans-serif" font-size="12" text-anchor="middle" fill="#EEDEFF">22 Jun</text>
<line x1="598.3" y1="355" x2="598.3" y2="360" stroke="#EEDEFF"/><text x="598.3" y="382" font-family="Overpass, Arial, Helvetica, sans-serif" font-size="12" text-anchor="middle" fill="#EEDEFF">6 Jul</text>
<line x1="704.0" y1="355" x2="704.0" y2="360" stroke="#EEDEFF"/><text x="704.0" y="382" font-family="Overpass, Arial, Helvetica, sans-serif" font-size="12" text-anchor="middle" fill="#EEDEFF">20 Jul</text>
<line x1="809.6" y1="355" x2="809.6" y2="360" stroke="#EEDEFF"/><text x="809.6" y="382" font-family="Overpass, Arial, Helvetica, sans-serif" font-size="12" text-anchor="middle" fill="#EEDEFF">3 Aug</text>
<line x1="870.0" y1="355" x2="870.0" y2="360" stroke="#EEDEFF"/><text x="870.0" y="382" font-family="Overpass, Arial, Helvetica, sans-serif" font-size="12" text-anchor="middle" fill="#EEDEFF">11 Aug</text>
<line x1="70" y1="55" x2="70" y2="355" stroke="#EEDEFF"/>
<line x1="70" y1="355" x2="870" y2="355" stroke="#EEDEFF"/>
<text x="18" y="205.0" font-family="Overpass, Arial, Helvetica, sans-serif" font-size="13" text-anchor="middle" transform="rotate(-90 18 205.0)" fill="#EEDEFF">Story Points Remaining</text>
<text x="470.0" y="408" font-family="Overpass, Arial, Helvetica, sans-serif" font-size="13" text-anchor="middle" fill="#EEDEFF">Sprint Timeline</text>
<polyline points="70.0,61.0 77.5,63.6 85.1,66.2 92.6,68.9 100.2,71.5 107.7,74.1 115.3,76.8 122.8,79.4 130.4,82.0 137.9,84.6 145.5,87.2 153.0,89.9 160.6,92.5 168.1,95.1 175.7,97.8 183.2,100.4 190.8,103.0 198.3,105.6 205.8,108.2 213.4,110.9 220.9,113.5 228.5,116.1 236.0,118.8 243.6,121.4 251.1,124.0 258.7,126.6 266.2,129.3 273.8,131.9 281.3,134.5 288.9,137.1 296.4,139.8 304.0,142.4 311.5,145.0 319.1,147.6 326.6,150.2 334.2,152.9 341.7,155.5 349.2,158.1 356.8,160.8 364.3,163.4 371.9,166.0 379.4,168.6 387.0,171.2 394.5,173.9 402.1,176.5 409.6,179.1 417.2,181.8 424.7,184.4 432.3,187.0 439.8,189.6 447.4,192.2 454.9,194.9 462.5,197.5 470.0,200.1 477.5,202.8 485.1,205.4 492.6,208.0 500.2,210.6 507.7,213.2 515.3,215.9 522.8,218.5 530.4,221.1 537.9,223.8 545.5,226.4 553.0,229.0 560.6,231.6 568.1,234.2 575.7,236.9 583.2,239.5 590.8,242.1 598.3,244.8 605.8,247.4 613.4,250.0 620.9,252.6 628.5,255.2 636.0,257.9 643.6,260.5 651.1,263.1 658.7,265.8 666.2,268.4 673.8,271.0 681.3,273.6 688.9,276.2 696.4,278.9 704.0,281.5 711.5,284.1 719.1,286.8 726.6,289.4 734.2,292.0 741.7,294.6 749.2,297.2 756.8,299.9 764.3,302.5 771.9,305.1 779.4,307.8 787.0,310.4 794.5,313.0 802.1,315.6 809.6,318.2 817.2,320.9 824.7,323.5 832.3,326.1 839.8,328.8 847.4,331.4 854.9,334.0 862.5,336.6 870.0,339.2" fill="none" stroke="#B37DFF" stroke-width="3" stroke-dasharray="8 6"/>
<polyline points="70.0,61.0 77.5,62.5 85.1,62.5 92.6,68.0 100.2,70.5 107.7,70.5 115.3,73.5 122.8,73.5 130.4,74.0 137.9,74.0 145.5,75.5 153.0,82.5 160.6,90.5 168.1,104.5 175.7,109.0 183.2,115.0 190.8,117.5 198.3,117.5 205.8,118.0 213.4,120.5 220.9,123.0 228.5,133.5 236.0,141.5 243.6,147.0 251.1,159.0 258.7,159.0 266.2,159.0 273.8,159.0 281.3,159.0 288.9,160.0 296.4,160.0 304.0,160.0 311.5,161.5 319.1,161.5 326.6,161.5 334.2,161.5 341.7,161.5 349.2,163.0 356.8,163.0 364.3,163.0 371.9,163.0 379.4,163.0 387.0,163.0 394.5,163.0 402.1,163.0 409.6,163.0 417.2,163.0 424.7,163.0 432.3,163.0 439.8,163.0 447.4,173.5 454.9,188.5 462.5,197.5 470.0,198.5 477.5,198.5 485.1,198.5 492.6,199.5 500.2,205.5 507.7,206.5 515.3,208.5 522.8,209.5 530.4,209.5 537.9,211.0 545.5,215.0 553.0,220.5 560.6,227.5 568.1,231.0 575.7,232.0 583.2,232.0 590.8,232.0 598.3,237.0 605.8,238.0 613.4,240.0 620.9,240.0 628.5,240.0 636.0,240.0 643.6,240.0 651.1,243.0 658.7,244.0 666.2,245.0 673.8,246.0 681.3,246.0 688.9,246.0 696.4,248.5 704.0,255.0 711.5,257.0 719.1,259.0 726.6,261.5 734.2,263.5 741.7,265.5 749.2,272.5 756.8,280.0 764.3,282.0 771.9,296.5 779.4,305.5 787.0,317.5 794.5,317.5 802.1,317.5 809.6,317.5 817.2,317.5 824.7,317.5 832.3,317.5 839.8,319.0 847.4,321.5 854.9,324.0 862.5,326.5 870.0,326.5" fill="none" stroke="#D6B3FF" stroke-width="4"/>
<line x1="610" y1="75" x2="645" y2="75" stroke="#D6B3FF" stroke-width="4"/>
<text x="655" y="80" font-family="Overpass, Arial, Helvetica, sans-serif" font-size="13" fill="#EEDEFF">Remaining work</text>
<line x1="610" y1="97" x2="645" y2="97" stroke="#B37DFF" stroke-width="3" stroke-dasharray="8 6"/>
<text x="655" y="102" font-family="Overpass, Arial, Helvetica, sans-serif" font-size="13" fill="#EEDEFF">Ideal burndown</text>
</svg>
